<svg xmlns="http://www.w3.org/2000/svg" width="15.85" height="16.741" viewBox="0 0 15.85 16.741">
  <g id="Group_49409" data-name="Group 49409" transform="translate(-989.658 -1324.259)">
    <g id="Group_49408" data-name="Group 49408">
      <g id="Group_49407" data-name="Group 49407">
        <path id="Path_24281" data-name="Path 24281" d="M-5369.933-2429.514h6.345c.25,0,.312.062.313.311q0,.406,0,.812c0,.186-.08.271-.264.267-.1,0-.125.037-.125.13q0,2.711,0,5.421a.169.169,0,0,0,.094.17.6.6,0,0,1,.292.516c.009.25,0,.5,0,.751a.224.224,0,0,1-.251.241h-12.75c-.261,0-.323-.062-.323-.324,0-.216,0-.433,0-.649a.611.611,0,0,1,.3-.545.174.174,0,0,0,.09-.173q0-1.193,0-2.386v-3c0-.142,0-.142-.145-.146a.227.227,0,0,1-.243-.25c0-.291,0-.582,0-.873,0-.192.079-.268.273-.268h6.4Zm-.012,8.186h6.171a.055.055,0,0,0,.062-.062c0-.166,0-.332-.007-.5a.161.161,0,0,0-.169-.165.212.212,0,0,1-.213-.2.845.845,0,0,1-.008-.132q0-2.918,0-5.836c0-.254.059-.316.313-.328.066,0,.089-.03.087-.093,0-.081,0-.162,0-.244,0-.2.021-.187-.185-.187h-12.09c-.023,0-.047,0-.071,0-.081-.008-.118.022-.113.108s0,.183,0,.274c0,.137,0,.137.139.141a.23.23,0,0,1,.255.23,1.116,1.116,0,0,1,0,.122q0,2.9,0,5.8a1.051,1.051,0,0,1-.01.162.214.214,0,0,1-.2.194c-.143.021-.182.063-.185.211,0,.122,0,.244,0,.365,0,.148,0,.148.151.148Z" transform="translate(6367.522 3759.663)" fill="#394f9b"/>
        <path id="Path_24282" data-name="Path 24282" d="M-5430.78-2713.978h-7.715c-.037,0-.074,0-.112,0-.065,0-.1-.022-.1-.094q0-.35,0-.7a.135.135,0,0,1,.081-.127q1.441-.862,2.882-1.726,2.411-1.446,4.821-2.9a.232.232,0,0,1,.28,0q2.335,1.407,4.674,2.8,1.515.908,3.029,1.816a.145.145,0,0,1,.082.137c0,.227,0,.453,0,.68,0,.081-.031.111-.108.105-.033,0-.067,0-.1,0Zm0-.445h7.361c.124,0,.149-.03.13-.14-.01-.056-.055-.074-.094-.1q-3.647-2.188-7.294-4.377a.17.17,0,0,0-.2,0q-1.311.792-2.627,1.58l-4.362,2.614c-.113.068-.226.138-.34.2-.071.042-.063.108-.052.17s.069.042.11.045.061,0,.091,0Z" transform="translate(6428.363 4043.828)" fill="#394f9b"/>
        <path id="Path_24283" data-name="Path 24283" d="M-5430.748-1991.171h7.725c.037,0,.074,0,.111,0,.065,0,.089.029.089.093q0,.883,0,1.766c0,.066-.029.092-.091.09-.034,0-.068,0-.1,0h-15.46c-.2,0-.2,0-.2-.19v-1.6c0-.156,0-.157.158-.157Zm0,1.516h6.741c.216,0,.433,0,.649,0,.076,0,.1-.027.1-.1q0-.431,0-.863c0-.077-.024-.115-.1-.108-.031,0-.061,0-.092,0h-14.588a.726.726,0,0,1-.082,0c-.09-.01-.116.032-.116.118,0,.264,0,.528,0,.792,0,.161,0,.161.16.161Z" transform="translate(6428.329 3330.22)" fill="#394f9b"/>
        <path id="Path_24284" data-name="Path 24284" d="M-5018.608-2379.132v-2.944c0-.232.072-.3.3-.3h.792c.236,0,.31.073.31.309q0,2.046,0,4.091,0,.9,0,1.8c0,.216-.049.273-.259.31a.15.15,0,0,0-.13.158c0,.112-.034.208-.146.241a.449.449,0,0,1-.4-.036.229.229,0,0,1-.082-.179c-.014-.138-.043-.168-.177-.187a.229.229,0,0,1-.209-.263q0-.919,0-1.837Zm.435.021c0,.873,0,1.745,0,2.617,0,.135.009.246.153.3a.26.26,0,0,1,.076.066.049.049,0,0,0,.077.007c.222-.166.222-.165.222-.443v-5.184c0-.034,0-.068,0-.1,0-.068-.024-.1-.1-.1-.1,0-.2,0-.294,0-.135,0-.135,0-.135.134Z" transform="translate(6016.796 3713.484)" fill="#394f9b"/>
        <path id="Path_24285" data-name="Path 24285" d="M-5146.055-2379.158v2.944c0,.219-.043.268-.261.306a.149.149,0,0,0-.125.151.338.338,0,0,1-.535.223.253.253,0,0,1-.094-.183c-.024-.155-.038-.168-.193-.2a.209.209,0,0,1-.186-.176.753.753,0,0,1-.012-.141q0-2.928,0-5.857a.718.718,0,0,1,.006-.121.214.214,0,0,1,.225-.2c.318,0,.636,0,.954,0a.216.216,0,0,1,.22.23c0,.139,0,.278,0,.416Zm-.96.024c0,.886,0,1.773,0,2.659,0,.1,0,.18.114.224.054.021.091.1.142.106s.089-.085.149-.109c.111-.043.124-.127.124-.234q0-2.67,0-5.339c0-.024,0-.048,0-.071,0-.061-.024-.085-.084-.084-.1,0-.2,0-.294,0-.146,0-.146,0-.146.146Z" transform="translate(6143.032 3713.522)" fill="#394f9b"/>
        <path id="Path_24286" data-name="Path 24286" d="M-4888.281-2379.133v2.963c0,.21-.044.26-.252.289a.151.151,0,0,0-.132.166c0,.113-.038.208-.151.237a.429.429,0,0,1-.406-.052.228.228,0,0,1-.066-.165c-.012-.133-.049-.17-.178-.188a.222.222,0,0,1-.207-.233c0-.024,0-.047,0-.071v-5.9c0-.235.068-.3.3-.3.274,0,.548,0,.822,0,.2,0,.271.075.271.27Zm-.434.018v-2.132c0-.2,0-.406,0-.609,0-.068-.024-.1-.095-.1-.091,0-.183,0-.274,0-.156,0-.156,0-.156.155q0,2.68,0,5.36a.2.2,0,0,0,.119.217c.053.024.1.105.141.1s.1-.082.151-.108c.106-.048.117-.128.117-.23C-4888.716-2377.342-4888.715-2378.229-4888.715-2379.115Z" transform="translate(5890.48 3713.492)" fill="#394f9b"/>
        <path id="Path_24287" data-name="Path 24287" d="M-5275.742-2379.134v-2.973c0-.208.072-.28.28-.28h.842c.188,0,.269.08.269.264q0,2.988,0,5.977c0,.172-.067.249-.238.264a.148.148,0,0,0-.145.163c0,.112-.035.209-.149.239a.434.434,0,0,1-.4-.039.217.217,0,0,1-.076-.17c-.011-.137-.048-.173-.184-.194s-.2-.1-.2-.256Q-5275.743-2377.637-5275.742-2379.134Zm.958.022v-2.659c0-.031,0-.062,0-.091,0-.064-.022-.093-.089-.091-.1,0-.2,0-.294,0-.14,0-.14,0-.14.14q0,2.7,0,5.4a.234.234,0,0,0,.093.181c.125.125.209.1.333,0a.233.233,0,0,0,.1-.2C-5274.786-2377.325-5274.784-2378.218-5274.784-2379.112Z" transform="translate(6268.709 3713.493)" fill="#394f9b"/>
      </g>
    </g>
  </g>
</svg>
