<svg xmlns="http://www.w3.org/2000/svg" width="32.123" height="28.663" viewBox="0 0 32.123 28.663">
  <g id="Group_49408" data-name="Group 49408" transform="translate(12756.063 -838)">
    <g id="Group_49407" data-name="Group 49407">
      <path id="Path_24730" data-name="Path 24730" d="M1209.96,368.816h12.3c.594,0,.708.112.678.7a24.964,24.964,0,0,1-1.068,6.7,11.978,11.978,0,0,1-10.065,8.625,12.364,12.364,0,0,1-14.029-9.67,34.387,34.387,0,0,1-.785-5.789c-.02-.39.156-.57.578-.57q3.761,0,7.521,0Zm.024.906q-5.856,0-11.713,0c-.253,0-.355.029-.334.332a34.678,34.678,0,0,0,.7,4.81A11.512,11.512,0,0,0,1211.4,384a11.163,11.163,0,0,0,9.24-7.04A21.751,21.751,0,0,0,1222,370.1c.033-.377.021-.378-.366-.378Z" transform="translate(-13953.051 481.662)" fill="#394f9b"/>
      <path id="Path_24731" data-name="Path 24731" d="M1447.074,380.389a6.393,6.393,0,0,1-3.131,4.872,5.129,5.129,0,0,1-3.689.87c-.367-.056-.529-.248-.478-.544s.26-.4.638-.344a4.464,4.464,0,0,0,3.418-1.008,5.643,5.643,0,0,0,2.334-4.035,2.83,2.83,0,0,0-3.476-3.181c-.495.091-.734-.012-.781-.336-.044-.3.159-.48.628-.553a3.917,3.917,0,0,1,3.223.756A4.069,4.069,0,0,1,1447.074,380.389Z" transform="translate(-14171.014 475.157)" fill="#394f9b"/>
      <path id="Path_24732" data-name="Path 24732" d="M1302.035,212.778c.315,0,.5.217.408.476a9.975,9.975,0,0,0-.409,1.4,5.35,5.35,0,0,0,.231,2.794,6.984,6.984,0,0,1-.038,4.675c-.021.058-.037.118-.062.176a.475.475,0,0,1-.559.259c-.241-.042-.373-.195-.318-.4.079-.3.182-.606.266-.91a6.383,6.383,0,0,0-.211-3.761,6.234,6.234,0,0,1,.212-4.375A.488.488,0,0,1,1302.035,212.778Z" transform="translate(-14046.467 625.222)" fill="#394f9b"/>
      <path id="Path_24733" data-name="Path 24733" d="M1332.03,222.6c-.368,0-.554-.185-.466-.457a10.294,10.294,0,0,0,.371-1.425,6.191,6.191,0,0,0-.281-3.02,6.306,6.306,0,0,1,.153-4.507c.015-.036.026-.073.043-.109a.47.47,0,0,1,.566-.241c.262.062.381.215.3.432a9.569,9.569,0,0,0-.419,1.418,5.789,5.789,0,0,0,.279,2.972,6.919,6.919,0,0,1-.1,4.563C1332.4,222.423,1332.319,222.6,1332.03,222.6Z" transform="translate(-14073.642 625.178)" fill="#394f9b"/>
    </g>
  </g>
</svg>
