<svg xmlns="http://www.w3.org/2000/svg" width="22.939" height="28.5" viewBox="0 0 22.939 28.5">
  <g id="Group_49409" data-name="Group 49409" transform="translate(12902.878 -838)">
    <path id="Path_24723" data-name="Path 24723" d="M1983.315-103.74c0,1.658-.045,3.318.016,4.974a1.894,1.894,0,0,1-1.322,2.168c-1.961.591-2.477,1.863-2.343,3.831.167,2.444.24,2.062-2.068,2.1-.585.009-1.171.019-1.755-.01a2.225,2.225,0,0,1-2.072-1.574c-.174-.432.153-1.172-.412-1.275a10.527,10.527,0,0,0-2.622-.027c-.5.037-.279.537-.327.837a2.2,2.2,0,0,1-2.391,2.057c-3.726.11-3.778.129-3.714-3.521a1.649,1.649,0,0,0-1.3-1.9c-2.059-.58-2.741-1.882-2.589-4.018.194-2.717.024-5.459.056-8.19a5.972,5.972,0,0,1,3.908-5.945,1.217,1.217,0,0,0,.9-.975,4.4,4.4,0,0,1,3.9-3.623,13.7,13.7,0,0,1,6.37.162,4.209,4.209,0,0,1,3.2,3.271,1.769,1.769,0,0,0,1.109,1.327,5.9,5.9,0,0,1,3.447,5.653C1983.309-106.861,1983.315-105.3,1983.315-103.74Zm-19.046-1.389.536.028c0,3.6.005,7.2,0,10.8-.006,3.187-.014,3.168,3.164,3.06a1.732,1.732,0,0,0,1.921-2.009c-.022-2.682.037-5.365-.007-8.047-.116-7.037.971-5.866-3.966-11.413a1.849,1.849,0,0,1-.344-.471c-.326-.767-.835-.634-1.422-.343a5.438,5.438,0,0,0-3.067,5.1c-.063,1.949.094,3.91-.05,5.85a2.523,2.523,0,0,0,1.843,2.951c1.437.546,1.395.658,1.395-.967Zm15.525.023c0,1.676-.011,3.351.01,5.027,0,.3-.192.726.265.877.612.2,2.651-1.486,2.654-2.2.011-2.487.055-4.975-.011-7.459a5.066,5.066,0,0,0-2.34-4.312c-.886-.589-1.519-.8-2.178.381a15.585,15.585,0,0,1-2.068,2.451,7.158,7.158,0,0,0-1.906,5.188c.117,3.457.032,6.922.03,10.384s.127,3.552,3.648,3.542c.955,0,1.252-.263,1.247-1.225-.021-3.7.03-7.407.078-11.111C1979.23-104.073,1979.041-104.628,1979.795-105.106Zm-6.145,3.157q0-1.607,0-3.215c0-1.071-.055-2.147.026-3.213.159-2.121.616-4.164,2.264-5.684.814-.751.369-1.31-.185-1.817-1.17-1.071-6.3-1.043-7.417.036-.49.473-.979,1.024-.262,1.732,1.914,1.892,2.325,4.311,2.339,6.847.021,3.653.009,7.307.009,10.96,0,2.193,0,2.153,2.168,2.142.819,0,1.095-.227,1.075-1.067C1973.612-97.466,1973.647-99.708,1973.65-101.948Zm.867-7.7c.171-.084.277-.1.329-.167.867-1.053,1.749-2.094,2.584-3.171a3.033,3.033,0,0,0-.775-4.625c-1.948-1.314-7.371-1.285-9.305.05-1.281.884-2.063,2.666-1.384,3.638,1.027,1.469,2.255,2.8,3.4,4.187a5.406,5.406,0,0,0-1.443-3.788c-1.139-1.216-.967-2.553.6-3.15a9.694,9.694,0,0,1,7-.021c1.522.576,1.736,2.024.651,3.211A6.43,6.43,0,0,0,1974.517-109.651Zm-10.34,13.286c.206-2.044-.134-2.4-2.934-3.085C1960.915-97.452,1961.156-97.2,1964.177-96.365Zm18.467-3.181c-3.042,1.189-3.084,1.242-2.65,3.219C1982.859-97.453,1982.859-97.453,1982.644-99.546Z" transform="translate(-14863.272 957.13)" fill="#394f9b"/>
  </g>
</svg>
