<svg xmlns="http://www.w3.org/2000/svg" width="26.119" height="26.104" viewBox="0 0 26.119 26.104">
  <g id="Group_49411" data-name="Group 49411" transform="translate(13205.959 -837)">
    <g id="Group_49074" data-name="Group 49074" transform="translate(-13205.959 837)">
      <path id="Path_40188" data-name="Path 40188" d="M-262.41,907.317q3.007,0,6.015,0a1.293,1.293,0,0,1,1.352,1.037,1.4,1.4,0,0,1,.022.29c0,1.239,0,2.478,0,3.717,0,.156.036.227.2.273a2.158,2.158,0,0,1,1.557,2.088q0,3.425,0,6.85c0,.384-.16.543-.546.543-.522,0-1.044,0-1.566,0a.441.441,0,0,1-.5-.5c0-.348-.011-.7,0-1.044.006-.168-.05-.211-.212-.21-1.323.006-2.645,0-3.968,0l-8.6,0c-.268,0-.268,0-.268.272,0,.327,0,.654,0,.982a.438.438,0,0,1-.488.492c-.536,0-1.072,0-1.608,0-.364,0-.52-.161-.52-.527q0-3.436,0-6.871a2.154,2.154,0,0,1,1.564-2.084.221.221,0,0,0,.189-.26c-.005-1.239,0-2.478,0-3.717a1.283,1.283,0,0,1,1.34-1.339Zm-.006,9.577v0h4.093c1.322,0,2.645,0,3.967,0,.153,0,.222-.032.22-.207-.01-.647,0-1.295-.005-1.942a1.3,1.3,0,0,0-1.252-1.331c-.194-.013-.389-.015-.584-.015h-9.188c-1.35,0-2.7-.007-4.051,0a1.331,1.331,0,0,0-1.466,1.481q0,.867,0,1.733c0,.275,0,.275.268.276Zm.009.871v0h-8c-.276,0-.277,0-.277.284,0,.842,0,1.684.005,2.527,0,.219-.106.525.046.635s.441.028.67.038c.121.006.155-.044.154-.158-.005-.341,0-.682,0-1.023,0-.428.135-.566.557-.566h7.559l6.118,0c.421,0,.557.141.556.568,0,.341,0,.682,0,1.023,0,.116.033.161.153.156a4.692,4.692,0,0,1,.543,0c.149.01.188-.043.188-.188-.005-1.023-.007-2.046,0-3.07,0-.183-.046-.232-.232-.232Q-258.387,917.769-262.407,917.764Zm-6.532-7.28c0,.613,0,1.225,0,1.838,0,.156.032.232.205.217a2.431,2.431,0,0,1,.438,0c.175.016.223-.048.223-.221a15.84,15.84,0,0,1,.02-1.69,1.246,1.246,0,0,1,1.159-1.123c.932-.042,1.865-.039,2.8,0a1.251,1.251,0,0,1,1.242,1.323c0,.508,0,1.016,0,1.524,0,.145.044.2.191.19a3.931,3.931,0,0,1,.5,0c.147.009.19-.048.188-.192-.007-.515-.006-1.03,0-1.545a1.274,1.274,0,0,1,1.233-1.3c.911-.038,1.824-.034,2.734,0a1.265,1.265,0,0,1,1.255,1.317c.006.348,0,.7,0,1.044-.006.714-.007.711.7.678.125-.006.166-.044.166-.171,0-1.239,0-2.478,0-3.717a.418.418,0,0,0-.412-.458,2.471,2.471,0,0,0-.292-.013l-8.688,0c-1.03,0-2.061,0-3.091,0-.424,0-.564.149-.565.568Q-268.94,909.617-268.939,910.484Zm3.457,2.052v0h.772c.264,0,.529-.008.793,0,.137,0,.2-.029.2-.183-.008-.5,0-1,0-1.5a.432.432,0,0,0-.495-.483q-1.242,0-2.483,0a.435.435,0,0,0-.5.483c-.006.494.006.988-.005,1.482,0,.174.064.208.219.206C-266.484,912.531-265.983,912.536-265.482,912.536Zm6.122,0v0h1.545c.1,0,.2.012.195-.141-.005-.522.006-1.044-.008-1.566-.008-.319-.175-.463-.494-.464q-1.242,0-2.485,0a.449.449,0,0,0-.506.5c0,.494,0,.988,0,1.483,0,.147.045.191.19.188C-260.4,912.531-259.883,912.536-259.361,912.536Z" transform="translate(271.559 -896.014)" fill="#394f9b"/>
      <path id="Path_40189" data-name="Path 40189" d="M-245.454,645.258q0,1.17,0,2.339a.444.444,0,0,1-.416.5.444.444,0,0,1-.451-.49c0-1.4-.005-2.8,0-4.2a.325.325,0,0,0-.223-.358q-5.041-2.247-10.075-4.509c-.552-.247-1.107-.49-1.654-.748a.5.5,0,0,0-.467,0q-4.8,2.162-9.613,4.314c-.717.322-1.432.648-2.153.961a.272.272,0,0,0-.188.3c0,1.379,0,2.757,0,4.136,0,.063,0,.126,0,.188a.427.427,0,0,1-.426.4.435.435,0,0,1-.441-.391,2.1,2.1,0,0,1-.006-.25c0-1.49,0-2.98,0-4.47a.549.549,0,0,1,.368-.563q6.219-2.78,12.433-5.571a.655.655,0,0,1,.578.024q3.92,1.763,7.842,3.52c1.51.678,3.019,1.359,4.532,2.03a.535.535,0,0,1,.365.561C-245.462,643.74-245.454,644.5-245.454,645.258Z" transform="translate(271.568 -636.791)" fill="#394f9b"/>
      <path id="Path_40190" data-name="Path 40190" d="M193.968,1036.115q0,1.67,0,3.341a.433.433,0,0,1-.685.379.476.476,0,0,1-.185-.44c0-.849,0-1.7.007-2.548,0-.192-.052-.241-.242-.24q-2.37.012-4.74,0c-.212,0-.25.068-.247.259.01.849.008,1.7.006,2.548a.447.447,0,0,1-.351.5.426.426,0,0,1-.511-.454q-.006-1.41,0-2.819,0-1.921,0-3.843c0-.4.144-.54.541-.54l5.889,0c.37,0,.519.147.52.517Q193.969,1034.444,193.968,1036.115Zm-3.477-.38c.8,0,1.6,0,2.4,0,.157,0,.218-.034.216-.206-.009-.737-.008-1.474,0-2.211,0-.157-.047-.2-.2-.2q-2.409.007-4.819,0c-.174,0-.208.065-.207.219.006.73.007,1.46,0,2.19,0,.167.053.211.215.21C188.892,1035.731,189.691,1035.735,190.491,1035.735Z" transform="translate(-167.857 -1015.733)" fill="#394f9b"/>
      <path id="Path_40191" data-name="Path 40191" d="M220.4,881.517c-.383,0-.766,0-1.148,0a.444.444,0,0,1-.5-.44c0-.268.189-.429.5-.429.188,0,.376,0,.564,0,.105,0,.15-.028.148-.14-.006-.341-.007-.682,0-1.023,0-.125-.052-.151-.163-.15-.362,0-.724,0-1.086,0a.433.433,0,0,1-.451-.611c.276-.846.56-1.689.845-2.533a.432.432,0,0,1,.465-.34q.825-.007,1.649,0a.443.443,0,0,1,.48.35q.411,1.226.819,2.453c.147.445-.031.681-.5.682-.341,0-.682.006-1.023,0-.126,0-.171.039-.168.167.008.334.007.668,0,1,0,.109.039.147.146.144.209-.006.418,0,.626,0a.41.41,0,0,1,.448.415.423.423,0,0,1-.441.452C221.2,881.523,220.8,881.517,220.4,881.517Zm-.008-3.048c.319,0,.639-.006.958,0,.146,0,.182-.033.132-.177q-.245-.708-.472-1.422c-.035-.109-.08-.159-.2-.155-.271.008-.542.006-.812,0a.171.171,0,0,0-.192.142q-.236.733-.487,1.461c-.044.128,0,.154.117.152C219.75,878.465,220.069,878.469,220.389,878.469Z" transform="translate(-197.764 -865.86)" fill="#394f9b"/>
      <path id="Path_40192" data-name="Path 40192" d="M242.36,1074.717c-.264,0-.528,0-.792,0a.409.409,0,0,1-.431-.411.416.416,0,0,1,.417-.451q.791-.014,1.583,0a.419.419,0,0,1,.432.458.414.414,0,0,1-.46.4C242.86,1074.719,242.61,1074.717,242.36,1074.717Z" transform="translate(-219.716 -1055.587)" fill="#394f9b"/>
    </g>
  </g>
</svg>
