<svg xmlns="http://www.w3.org/2000/svg" width="16.961" height="16.952" viewBox="0 0 16.961 16.952">
  <path id="Path_25571" data-name="Path 25571" d="M5605.308,893.562a8.473,8.473,0,1,1-8.249,8.7A8.478,8.478,0,0,1,5605.308,893.562Zm.243,8.823c-.833,0-1.666.012-2.5-.007-.276-.006-.34.08-.332.345a19.007,19.007,0,0,0,.323,2.547c.058.34.189.453.552.414a20.8,20.8,0,0,1,4.065-.02c.183.016.271-.013.315-.216a15.723,15.723,0,0,0,.373-2.771c.009-.247-.071-.3-.3-.3C5607.216,902.393,5606.383,902.385,5605.551,902.385Zm-.036-.7c.845,0,1.69-.007,2.535,0,.23,0,.308-.049.3-.3a18.78,18.78,0,0,0-.261-2.285c-.042-.282-.154-.376-.444-.35a21.7,21.7,0,0,1-4.37-.041c-.173-.02-.216.05-.246.2a15.063,15.063,0,0,0-.309,2.47c-.007.244.064.3.3.3C5603.85,901.68,5604.682,901.688,5605.515,901.688Zm-5.632.695c-.616,0-1.231.009-1.846,0-.229-.005-.272.07-.255.287a7.868,7.868,0,0,0,1.217,3.6.346.346,0,0,0,.469.166,16.442,16.442,0,0,1,2.658-.578c.295-.039.326-.145.268-.394a13.325,13.325,0,0,1-.359-2.775c0-.231-.064-.312-.3-.306C5601.113,902.393,5600.5,902.383,5599.882,902.383Zm11.3,0c-.614,0-1.229.01-1.843-.005-.237-.006-.3.069-.307.3a13.347,13.347,0,0,1-.357,2.77c-.051.222-.014.31.233.342a18.405,18.405,0,0,1,2.812.574.285.285,0,0,0,.376-.147,7.9,7.9,0,0,0,1.189-3.562c.018-.224-.04-.286-.261-.281C5612.415,902.391,5611.8,902.383,5611.187,902.383Zm-11.323-.695c.626,0,1.253-.008,1.88,0,.216,0,.285-.063.288-.281a12.437,12.437,0,0,1,.3-2.469c.05-.229.008-.344-.252-.379a17.187,17.187,0,0,1-2.872-.646.26.26,0,0,0-.362.147,7.805,7.805,0,0,0-1.062,3.366c-.015.2.035.266.242.262C5598.635,901.68,5599.249,901.688,5599.863,901.688Zm11.327,0c.614,0,1.228-.009,1.842,0,.228.005.273-.067.257-.285a8.014,8.014,0,0,0-.988-3.232.3.3,0,0,0-.428-.163,17.843,17.843,0,0,1-2.881.6c-.25.031-.29.134-.243.351a12.661,12.661,0,0,1,.291,2.469c0,.2.077.26.271.258C5609.937,901.682,5610.563,901.688,5611.19,901.688Zm-5.516-3.541c.706,0,1.293-.013,1.881-.066.231-.021.277-.074.21-.3a23.4,23.4,0,0,0-.8-2.274c-.565-1.361-.645-1.408-2.107-1.226a.373.373,0,0,0-.342.243,24.588,24.588,0,0,0-1.2,3.186c-.08.274-.007.337.245.348C5604.308,898.1,5605.047,898.181,5605.674,898.147Zm-2.325,8.252a16.989,16.989,0,0,0,.757,2.178c.555,1.339.63,1.384,2.079,1.206a.222.222,0,0,1,.039,0,.3.3,0,0,0,.315-.218,25.629,25.629,0,0,0,1.126-2.926c.067-.223.033-.3-.195-.311A24.1,24.1,0,0,0,5603.35,906.4Zm3.873-11.963a20.629,20.629,0,0,1,1.269,3.373c.042.15.109.176.245.156a20.232,20.232,0,0,0,3-.625A7.9,7.9,0,0,0,5607.223,894.437Zm-7.825,2.82a24.078,24.078,0,0,0,2.815.648c.254.048.365-.031.428-.274a16.2,16.2,0,0,1,.841-2.38c.108-.25.215-.5.35-.816A7.915,7.915,0,0,0,5599.4,897.257Zm7.835,12.376a7.889,7.889,0,0,0,4.278-2.613,20.827,20.827,0,0,0-2.527-.53c-.527-.086-.53-.095-.686.416A22.14,22.14,0,0,1,5607.232,909.633Zm-7.6-2.535a7.841,7.841,0,0,0,4.205,2.532,21.375,21.375,0,0,1-1.148-2.986c-.03-.1-.074-.184-.213-.161A20.816,20.816,0,0,0,5599.632,907.1Z" transform="translate(-5597.054 -893.555)" fill="#394f9b"/>
</svg>
