<svg id="Group_47487" data-name="Group 47487" xmlns="http://www.w3.org/2000/svg" width="12.816" height="16.965" viewBox="0 0 12.816 16.965">
  <path id="Path_39878" data-name="Path 39878" d="M-1544.285,2357.655h-5.087a1.2,1.2,0,0,1-1.315-1.3q0-3.978,0-7.956a1.207,1.207,0,0,1,1.3-1.294c.244,0,.488-.01.73,0,.173.01.233-.041.23-.223-.011-.631,0-1.263,0-1.894a4.226,4.226,0,0,1,3.7-4.265,4.233,4.233,0,0,1,4.417,2.956,5.087,5.087,0,0,1,.17,1.469c-.007.577.005,1.155-.005,1.732,0,.181.057.233.232.225.288-.013.577-.006.866,0a1.187,1.187,0,0,1,1.17,1.147q.009,4.14,0,8.28a1.183,1.183,0,0,1-1.187,1.125Q-1541.673,2357.658-1544.285,2357.655Zm.023-.76h5.14c.425,0,.49-.064.49-.479q0-4,0-8.009c0-.483-.063-.549-.538-.549l-10.253,0c-.422,0-.51.084-.511.5q0,4.029,0,8.058c0,.389.091.478.477.479Zm-.034-9.793c1.056,0,2.111,0,3.166,0,.186,0,.249-.046.245-.239-.014-.73.006-1.461-.017-2.191a3.283,3.283,0,0,0-3.142-3.209,3.3,3.3,0,0,0-3.579,2.853c-.114.833-.019,1.676-.05,2.513-.008.207.043.276.264.274C-1546.371,2347.095-1545.333,2347.1-1544.3,2347.1Z" transform="translate(1550.687 -2340.691)" fill="#5769a9"/>
  <path id="Path_39879" data-name="Path 39879" d="M-1453.032,2524.445a1.336,1.336,0,0,0-.218-.907,1.056,1.056,0,0,1,.3-1.459,1.134,1.134,0,0,1,1.459.109,1.111,1.111,0,0,1,.085,1.5.519.519,0,0,0-.126.367c.007.261.006.523,0,.784a.741.741,0,0,1-.748.785.728.728,0,0,1-.756-.77C-1453.035,2524.715-1453.032,2524.58-1453.032,2524.445Z" transform="translate(1458.692 -2512.056)" fill="#5769a9"/>
</svg>
