<svg xmlns="http://www.w3.org/2000/svg" xmlns:xlink="http://www.w3.org/1999/xlink" width="188.762" height="222.616" viewBox="0 0 188.762 222.616">
  <defs>
    <linearGradient id="linear-gradient" y1="0.5" x2="1" y2="0.5" gradientUnits="objectBoundingBox">
      <stop offset="0" stop-color="#334596"/>
      <stop offset="1" stop-color="#86d1de"/>
    </linearGradient>
    <linearGradient id="linear-gradient-2" y1="0.5" x2="1" y2="0.5" gradientUnits="objectBoundingBox">
      <stop offset="0" stop-color="#334596"/>
      <stop offset="1" stop-color="#56c2db"/>
    </linearGradient>
  </defs>
  <g id="Group_49093" data-name="Group 49093" transform="translate(-55.534 -275.244)">
    <path id="Path_40205" data-name="Path 40205" d="M507.918,376.671h-78.86a41.34,41.34,0,0,0-41.346,41.346v78.86a41.345,41.345,0,0,0,41.346,41.346h78.86a41.316,41.316,0,0,0,16.62-3.472L508.8,519.007c-.293.008-.585.017-.877.017h-78.86a22.17,22.17,0,0,1-22.146-22.146v-78.86a22.17,22.17,0,0,1,22.146-22.146h78.86a22.17,22.17,0,0,1,22.147,22.146v78.86c0,.108,0,.217-.009.317l15.9,15.9a41.207,41.207,0,0,0,3.306-16.22v-78.86A41.346,41.346,0,0,0,507.918,376.671Z" transform="translate(-332.178 -101.427)" fill="url(#linear-gradient)"/>
    <path id="Path_40206" data-name="Path 40206" d="M515.248,442.576h-39.81a21.817,21.817,0,0,0-21.821,21.82v39.811a21.817,21.817,0,0,0,21.821,21.82h39.81c.184,0,.376,0,.559-.008l-15.844-15.852H475.438a5.964,5.964,0,0,1-5.96-5.96V464.4a5.964,5.964,0,0,1,5.96-5.96h39.81a5.964,5.964,0,0,1,5.96,5.96v23.95l15.861,15.861V464.4A21.817,21.817,0,0,0,515.248,442.576Z" transform="translate(-359.033 -128.281)" fill="url(#linear-gradient-2)"/>
    <path id="Path_40207" data-name="Path 40207" d="M674.537,639.222,659.9,624.58a9.86,9.86,0,0,0-13.949,0l-7.588,7.58a9.87,9.87,0,0,0,0,13.949l14.65,14.641.159.159a9.855,9.855,0,0,0,13.79-.159l7.58-7.58A9.854,9.854,0,0,0,674.537,639.222Z" transform="translate(-433.134 -201.264)" fill="url(#linear-gradient-2)"/>
    <path id="Path_40208" data-name="Path 40208" d="M483.606,681.011h14.43q16.035,0,16.034,11.762,0,8.886-9.3,11.24l9.3,13.591h-7.376l-8.658-13.069h-8.016V717.6h-6.414Zm6.414,5.227v13.069h8.016q9.621,0,9.62-6.534t-9.62-6.535Z" transform="translate(-371.253 -225.437)" fill="#fff"/>
    <rect id="Rectangle_16674" data-name="Rectangle 16674" width="4.778" height="4.778" transform="translate(147.116 487.288)" fill="#fff"/>
    <text id="CITY" transform="translate(153.635 491.86)" fill="#fff" font-size="27" font-family="Raleway-Regular, Raleway" letter-spacing="-0.001em"><tspan x="0" y="0">CITY</tspan></text>
    <ellipse id="Ellipse_4226" data-name="Ellipse 4226" cx="15.722" cy="17.043" rx="15.722" ry="17.043" transform="translate(73.099 455.744)" fill="none" stroke="#f3f2f9" stroke-miterlimit="10" stroke-width="10"/>
    <rect id="Rectangle_16675" data-name="Rectangle 16675" width="6.388" height="15.783" transform="matrix(0.807, -0.591, 0.591, 0.807, 90.734, 481.533)" fill="#f3f2f9"/>
  </g>
</svg>
