<svg xmlns="http://www.w3.org/2000/svg" width="15.513" height="17.636" viewBox="0 0 15.513 17.636">
  <g id="Group_49408" data-name="Group 49408" transform="translate(11982.846 -2896.575)">
    <g id="Group_49407" data-name="Group 49407">
      <path id="Path_40195" data-name="Path 40195" d="M1014.952-205.22v6.821c0,.4,0,.8,0,1.2a.746.746,0,0,0,.8.8l10.932,0h2.171a.732.732,0,0,0,.775-.771q0-.264,0-.529c0-.2,0-.2.2-.2a.622.622,0,0,0,.355-.1.6.6,0,0,0,.255-.662.609.609,0,0,0-.544-.444h-.033c-.232-.008-.232-.008-.232-.237,0-.6,0-1.2,0-1.8,0-.1.031-.126.125-.119a.728.728,0,0,0,.335-.045.6.6,0,0,0,.357-.682.6.6,0,0,0-.572-.474c-.243-.005-.243-.005-.243-.249,0-.6,0-1.2,0-1.8,0-.092.024-.122.116-.116a.733.733,0,0,0,.336-.035.588.588,0,0,0,.359-.7.575.575,0,0,0-.575-.456c-.234-.009-.234-.006-.234-.242,0-.588,0-1.176,0-1.763,0-.171-.029-.156.15-.152a.658.658,0,0,0,.462-.14.6.6,0,0,0,.192-.636.6.6,0,0,0-.512-.423c-.033,0-.066,0-.1-.005-.193,0-.193,0-.193-.2,0-.614,0-1.227,0-1.841,0-.086.021-.115.109-.109a.631.631,0,0,0,.609-.254.572.572,0,0,0,.049-.615.591.591,0,0,0-.519-.337c-.079-.006-.181.036-.231-.021s-.014-.155-.015-.235c0-.158,0-.316,0-.474a.734.734,0,0,0-.751-.775h-13.137a.745.745,0,0,0-.791.794Q1014.952-209.231,1014.952-205.22Zm11.262,0q0,1.8,0,3.6,0,2.37,0,4.739c0,.1-.028.126-.128.125-1.1,0-2.2,0-3.3,0-2.347,0-4.695,0-7.042,0a.433.433,0,0,1-.454-.448c.006-1.341,0-2.682,0-4.023q0-3.367,0-6.734,0-2.651,0-5.3a.394.394,0,0,1,.43-.431h10.017c.129,0,.257,0,.386,0,.063,0,.083.019.08.081,0,.11,0,.22,0,.331Zm.35,0v-1.334q0-3.51,0-7.02c0-.091.023-.115.115-.115.735,0,1.469,0,2.2,0a.374.374,0,0,1,.4.4c0,.217,0,.434,0,.65,0,.081-.02.106-.1.105-.356,0-.713,0-1.069,0a.606.606,0,0,0-.38.124.6.6,0,0,0-.206.67.6.6,0,0,0,.579.411q.534.006,1.069,0c.086,0,.111.02.111.108q-.006.964,0,1.929c0,.1-.032.12-.125.118-.356-.005-.713-.007-1.069,0a.6.6,0,0,0-.6.617.6.6,0,0,0,.621.583c.349,0,.7,0,1.047,0,.088,0,.126.013.125.118-.006.643,0,1.286,0,1.929,0,.089-.018.119-.113.117-.36-.006-.72,0-1.08,0a.594.594,0,0,0-.6.592.594.594,0,0,0,.6.6c.36,0,.72,0,1.08,0,.084,0,.112.018.112.108q-.006.975,0,1.951c0,.082-.02.105-.1.1-.364,0-.727,0-1.091,0a.569.569,0,0,0-.492.265.569.569,0,0,0-.033.616.578.578,0,0,0,.539.32c.36,0,.72,0,1.08,0,.077,0,.1.019.1.1,0,.22,0,.44,0,.66,0,.433,0,.866,0,1.3,0,.078-.022.1-.1.1-.36,0-.72-.006-1.08,0a.6.6,0,0,0-.613.6.6.6,0,0,0,.628.6c.356,0,.712,0,1.069,0,.072,0,.1.018.094.092,0,.206,0,.411,0,.617a.392.392,0,0,1-.436.445c-.72,0-1.44,0-2.16,0-.1,0-.125-.027-.125-.127Q1026.567-201.048,1026.564-205.219Zm2.4-6.457h-.848a.258.258,0,0,1-.234-.118.231.231,0,0,1-.012-.25.262.262,0,0,1,.255-.138h1.684c.18,0,.3.1.3.252s-.117.252-.3.253C1029.532-211.676,1029.249-211.677,1028.967-211.677Zm0,12.916v0c.29,0,.58,0,.87,0a.259.259,0,0,1,.272.257.256.256,0,0,1-.267.25q-.853,0-1.706,0a.26.26,0,0,1-.294-.256.259.259,0,0,1,.289-.25C1028.411-198.761,1028.69-198.76,1028.969-198.76Zm.006-9.565c-.3,0-.595,0-.892,0a.242.242,0,0,1-.219-.344.267.267,0,0,1,.276-.159h1.112c.191,0,.382,0,.573,0a.264.264,0,0,1,.286.256.255.255,0,0,1-.288.248Zm0,6.213h.848a.258.258,0,0,1,.286.239.256.256,0,0,1-.265.264q-.869.007-1.739,0a.257.257,0,0,1-.264-.266.252.252,0,0,1,.276-.237C1028.4-202.113,1028.691-202.113,1028.977-202.113Zm0-2.858h-.86a.252.252,0,0,1-.128-.021.256.256,0,0,1-.141-.273.247.247,0,0,1,.252-.2q.749,0,1.5,0a1.554,1.554,0,0,1,.274,0c.161.029.246.116.239.261a.25.25,0,0,1-.276.237C1029.549-204.97,1029.262-204.971,1028.976-204.971Z" transform="translate(-12997.797 3110.612)" fill="#aeb3bd"/>
    </g>
    <path id="Path_40196" data-name="Path 40196" d="M1428.143,380.287h1.917a.325.325,0,0,0,.14-.021.16.16,0,0,0,.1-.179.157.157,0,0,0-.152-.148c-.051,0-.1,0-.154,0H1426.2a.216.216,0,0,0-.148.031.168.168,0,0,0-.065.185.174.174,0,0,0,.17.133c.081,0,.161,0,.242,0Z" transform="translate(-13406.695 2529.733)" fill="#aeb3bd"/>
    <path id="Path_40197" data-name="Path 40197" d="M1428.063,131.293H1430c.173,0,.267-.131.191-.263a.182.182,0,0,0-.177-.088c-.272,0-.543,0-.815,0l-3.04,0c-.029,0-.059,0-.088,0a.166.166,0,0,0-.171.164.175.175,0,0,0,.169.171c.121.008.242.009.363.009Z" transform="translate(-13406.612 2773.238)" fill="#aeb3bd"/>
    <path id="Path_40198" data-name="Path 40198" d="M1428.223,255.684h1.949c.138,0,.216-.084.193-.2a.154.154,0,0,0-.138-.136,1.131,1.131,0,0,0-.154-.007h-3.788c-.165,0-.263.094-.226.218.031.106.111.131.214.13C1426.923,255.683,1427.573,255.684,1428.223,255.684Z" transform="translate(-13406.766 2651.586)" fill="#aeb3bd"/>
    <path id="Path_40199" data-name="Path 40199" d="M1428.092,6.683H1426.2l-.1,0a.157.157,0,0,0-.161.161.162.162,0,0,0,.156.177c.135.008.271.006.407.006h3.524c.15-.005.23-.068.229-.18s-.08-.168-.235-.168Z" transform="translate(-13406.647 2894.758)" fill="#aeb3bd"/>
    <path id="Path_40200" data-name="Path 40200" d="M1255.359-21.949a.261.261,0,0,1,.166.091c.2.2.4.4.6.6.053.055.078.045.126,0,.356-.36.715-.716,1.073-1.075a.176.176,0,0,1,.229-.039.165.165,0,0,1,.075.2.206.206,0,0,1-.067.1l-1.222,1.221a.182.182,0,0,1-.295.01c-.263-.261-.524-.523-.786-.785a.18.18,0,0,1-.052-.209A.18.18,0,0,1,1255.359-21.949Z" transform="translate(-13230.262 2923.2)" fill="#aeb3bd"/>
    <path id="Path_40201" data-name="Path 40201" d="M1255.359,351.275a.253.253,0,0,1,.164.091c.2.2.4.4.6.6.049.051.073.045.12,0,.346-.35.695-.7,1.043-1.045a.3.3,0,0,1,.111-.087.161.161,0,0,1,.2.067.172.172,0,0,1-.029.23l-.623.623-.615.615a.182.182,0,0,1-.3,0l-.779-.779a.177.177,0,0,1-.052-.209A.181.181,0,0,1,1255.359,351.275Z" transform="translate(-13230.257 2558.205)" fill="#aeb3bd"/>
    <path id="Path_40202" data-name="Path 40202" d="M1256.131,228.067a.181.181,0,0,1-.148-.065c-.262-.262-.525-.524-.786-.788a.172.172,0,0,1-.015-.263.176.176,0,0,1,.263.016c.21.206.418.413.623.624.048.049.071.047.118,0,.354-.358.711-.712,1.065-1.069a.187.187,0,0,1,.237-.052.164.164,0,0,1,.082.188.2.2,0,0,1-.067.111l-1.239,1.238A.17.17,0,0,1,1256.131,228.067Z" transform="translate(-13230.205 2679.84)" fill="#aeb3bd"/>
    <path id="Path_40203" data-name="Path 40203" d="M1256.135,103.578a.176.176,0,0,1-.1-.043c-.275-.274-.55-.548-.824-.824a.169.169,0,0,1-.018-.238.175.175,0,0,1,.228-.037.645.645,0,0,1,.089.081c.192.192.386.382.575.577.051.052.078.05.128,0,.34-.344.683-.686,1.025-1.028.018-.018.035-.037.055-.054a.176.176,0,0,1,.255-.007.182.182,0,0,1-.017.265c-.178.178-.359.354-.537.532-.235.235-.47.471-.7.71A.279.279,0,0,1,1256.135,103.578Z" transform="translate(-13230.227 2801.588)" fill="#aeb3bd"/>
  </g>
</svg>
