<svg xmlns="http://www.w3.org/2000/svg" width="15.887" height="18.248" viewBox="0 0 15.887 18.248">
  <g id="Group_42842" data-name="Group 42842" transform="translate(-539.802 -1091.766)">
    <path id="Path_25382" data-name="Path 25382" d="M555.129,1091.766a3.56,3.56,0,0,1,2.016,1.045c.284.246.462.322.769.035a.953.953,0,0,1,1.013-.13q2.537.876,5.081,1.732a1.31,1.31,0,0,1,.832.811c1.331,3.268,2.68,6.53,4.013,9.8.371.909.167,1.4-.72,1.768q-3.622,1.515-7.25,3.015c-.894.37-1.358.17-1.736-.747-1.329-3.221-2.648-6.446-3.983-9.664a1.609,1.609,0,0,1,.069-1.481c.423-.792.788-1.616,1.2-2.414.156-.3.121-.458-.179-.636a4.842,4.842,0,0,1-1.9-1.672A.905.905,0,0,1,555.129,1091.766Zm4.367,5.525a1.221,1.221,0,0,1-1.068-.594,1.1,1.1,0,0,1,.043-1.328c.271-.327.2-.536-.061-.786a3.675,3.675,0,0,1-.394-.46c-.233-.315-.374-.288-.546.073q-.972,2.038-1.988,4.054a1.073,1.073,0,0,0-.017.964q2.015,4.892,4.019,9.788c.281.682.58.8,1.267.511q3.625-1.5,7.244-3.016c.712-.3.83-.59.532-1.317-1.319-3.222-2.649-6.44-3.963-9.665a1.255,1.255,0,0,0-.835-.791c-1.593-.522-3.176-1.073-4.76-1.621a.955.955,0,0,0-.779-.023c-.148.076-.326.173-.253.412a3.442,3.442,0,0,0,1.622,1.316,1.228,1.228,0,0,1,1.129,1.341A1.207,1.207,0,0,1,559.5,1097.291Zm-4.292-5.184a.576.576,0,0,0-.579.255.612.612,0,0,0,.045.7,4.518,4.518,0,0,0,1.636,1.455c.157.1.391.409.548.1.188-.374.7-.807.4-1.18A3.854,3.854,0,0,0,555.2,1092.106Zm4.025,3.17c-.255.07-.127.012-.386.2a.666.666,0,0,0-.23.6.837.837,0,0,0,.645.835.881.881,0,0,0,.849-1.456.606.606,0,0,0-.582-.257A1.53,1.53,0,0,0,559.228,1095.276Z" transform="translate(-13.339)" fill="#aeb3bd"/>
    <path id="Path_25383" data-name="Path 25383" d="M542.5,1168.935c.859-.075,1.629-.147,2.4-.206.168-.013.437-.131.469.129.043.347-.29.229-.466.251-.846.1-1.694.2-2.544.265a1.217,1.217,0,0,1-1.449-1.23c-.288-2.971-.557-5.943-.833-8.915-.082-.876-.152-1.753-.253-2.626a1.3,1.3,0,0,1,.208-1.065c.672-.757,1.377-1.485,2.072-2.222.09-.1.212-.2.341-.1.185.15.037.289-.066.4-.543.587-1.067,1.2-1.649,1.742a1.561,1.561,0,0,0-.479,1.436c.368,3.686.717,7.373,1.069,11.061C541.413,1168.818,541.6,1168.982,542.5,1168.935Z" transform="translate(0 -60.289)" fill="#aeb3bd"/>
    <path id="Path_25384" data-name="Path 25384" d="M663.544,1213.888c-.049.133-.092.259-.143.382-.907,2.189-1.811,4.379-2.73,6.562-.08.191-.1.588-.414.469-.349-.132-.05-.424.024-.605q1.341-3.291,2.721-6.565c.074-.177.086-.447.373-.454C663.5,1213.672,663.539,1213.781,663.544,1213.888Z" transform="translate(-113.16 -115.165)" fill="#aeb3bd"/>
    <path id="Path_25385" data-name="Path 25385" d="M630.318,1233a1.257,1.257,0,0,1,1.257,1.349,1.272,1.272,0,0,1-1.375,1.236,1.254,1.254,0,0,1-1.213-1.314A1.24,1.24,0,0,1,630.318,1233Zm-.034,2.165a.824.824,0,0,0,.86-.845.805.805,0,0,0-.814-.9.82.82,0,0,0-.923.881A.836.836,0,0,0,630.283,1235.162Z" transform="translate(-83.835 -132.762)" fill="#aeb3bd"/>
    <path id="Path_25386" data-name="Path 25386" d="M704.8,1263.857a1.294,1.294,0,1,1-.012,2.587,1.294,1.294,0,0,1,.012-2.587Zm.886,1.309a.878.878,0,0,0-1.756-.022.806.806,0,0,0,.828.878A.833.833,0,0,0,705.684,1265.166Z" transform="translate(-153.898 -161.771)" fill="#aeb3bd"/>
  </g>
</svg>
