<svg xmlns="http://www.w3.org/2000/svg" xmlns:xlink="http://www.w3.org/1999/xlink" width="300.442" height="294.588" viewBox="0 0 300.442 294.588">
  <defs>
    <clipPath id="clip-path">
      <path id="Path_39797" data-name="Path 39797" d="M2031.993,1650.735c1.292,12.174,2.105,24.615,3.34,36.881,6.7,1.992,14.62,4.172,17.9-3.885,4.557-11.2,25.721-11.417,35.316-9.631,11.875,2.21,37.988,4.6,36.1-13.059-1.573-14.7-8.372-23.138,8.857-28.578s25.89-16.072,21.752-32.085c-4.354-16.851,14.963-34.353,2.291-47.206-22.08-22.4-50.736,17.865-54.171,42.5s-15.6,16.578-32.224,18.054c-22.7,2.016-8.7,25.532-18.551,33.363C2044.878,1653.227,2040.32,1650.844,2031.993,1650.735Z" transform="translate(-2031.993 -1546.625)" fill="none"/>
    </clipPath>
    <clipPath id="clip-path-2">
      <path id="Path_39806" data-name="Path 39806" d="M2411.117,1049.368q-13.437-1.976-26.839-4.569c-.146.131-3.082-19.34,6.167-29.551,18.289-19.782,5.97-37.536,2.456-48.056-5.624-14.835-2.741-32.865,13.6-29.488,15.918,2.909,18.333-29.862,15.585-55.108-2.345-12.287,9.249-27.2,20.818-30.6,11.811-3.775,23.6,3.952,27.209,28.444,5.468,28.358-15.228,45.459-22.891,59.677-7.541,13.957,10,25.25-4.118,37.616-11.876,10.988-26.844,18.887-21.368,32.69C2427.36,1024.066,2426.013,1035.222,2411.117,1049.368Z" transform="translate(-2383.722 -851.085)" fill="#b27a0b"/>
    </clipPath>
    <linearGradient id="linear-gradient" y1="0.5" x2="1" y2="0.5" gradientUnits="objectBoundingBox">
      <stop offset="0" stop-color="#aa80f9"/>
      <stop offset="0.996" stop-color="#6165d7"/>
    </linearGradient>
    <clipPath id="clip-path-3">
      <path id="Path_39816" data-name="Path 39816" d="M528.961,426.7c-108.373,0-120.636,92.573-120.636,92.573H377.243v8.412l61.1,84.033L513,514.168H483.6l41.614-48.78s47.823,8.545,64.33,14.089c21.332,7.864,38.107,25.712,38.107,25.712S610.989,426.7,528.961,426.7Z" transform="translate(-377.243 -426.699)" fill="none"/>
    </clipPath>
    <linearGradient id="linear-gradient-2" x1="0.284" y1="1.037" x2="0.764" y2="0.039" gradientUnits="objectBoundingBox">
      <stop offset="0" stop-color="#fcb148"/>
      <stop offset="0.052" stop-color="#fdb946"/>
      <stop offset="0.142" stop-color="#fec144"/>
      <stop offset="0.318" stop-color="#ffc444"/>
      <stop offset="0.485" stop-color="#fdb946"/>
      <stop offset="0.775" stop-color="#f99c4c"/>
      <stop offset="0.866" stop-color="#f8924f"/>
      <stop offset="1" stop-color="#f8924f"/>
    </linearGradient>
    <linearGradient id="linear-gradient-3" x1="0.401" y1="0.958" x2="0.726" y2="0.09" xlink:href="#linear-gradient-2"/>
    <linearGradient id="linear-gradient-4" x1="-0.085" y1="0.5" x2="1.065" y2="0.5" xlink:href="#linear-gradient-2"/>
    <linearGradient id="linear-gradient-5" x1="0.495" y1="0.179" x2="0.556" y2="4.091" gradientUnits="objectBoundingBox">
      <stop offset="0" stop-color="#ffdb44"/>
      <stop offset="1" stop-color="#feef06"/>
    </linearGradient>
    <linearGradient id="linear-gradient-6" x1="0.492" y1="-0.777" x2="0.511" y2="1.295" xlink:href="#linear-gradient-5"/>
    <linearGradient id="linear-gradient-7" x1="0.072" y1="-41.299" x2="0.091" y2="-38.867" gradientUnits="objectBoundingBox">
      <stop offset="0.004" stop-color="#f36f56"/>
      <stop offset="0.306" stop-color="#f99c4c"/>
      <stop offset="0.545" stop-color="#fdb946"/>
      <stop offset="0.682" stop-color="#ffc444"/>
      <stop offset="0.804" stop-color="#fec144"/>
      <stop offset="0.867" stop-color="#fdb946"/>
      <stop offset="0.916" stop-color="#fbac49"/>
      <stop offset="0.958" stop-color="#f8994d"/>
      <stop offset="0.995" stop-color="#f58152"/>
      <stop offset="1" stop-color="#f57e53"/>
    </linearGradient>
    <linearGradient id="linear-gradient-11" x1="0.354" y1="-37.652" x2="0.373" y2="-35.22" xlink:href="#linear-gradient-7"/>
    <linearGradient id="linear-gradient-13" x1="0.495" y1="0.179" x2="0.556" y2="4.091" xlink:href="#linear-gradient-5"/>
    <linearGradient id="linear-gradient-15" x1="0.111" y1="-34.017" x2="0.13" y2="-31.585" xlink:href="#linear-gradient-7"/>
    <linearGradient id="linear-gradient-19" x1="-0.037" y1="-30.371" x2="-0.018" y2="-27.94" xlink:href="#linear-gradient-7"/>
    <linearGradient id="linear-gradient-23" x1="0.072" y1="-26.438" x2="0.091" y2="-24.006" xlink:href="#linear-gradient-7"/>
    <linearGradient id="linear-gradient-27" x1="0.354" y1="-22.792" x2="0.373" y2="-20.36" xlink:href="#linear-gradient-7"/>
    <linearGradient id="linear-gradient-31" x1="0.111" y1="-19.156" x2="0.13" y2="-16.724" xlink:href="#linear-gradient-7"/>
    <linearGradient id="linear-gradient-35" x1="0.237" y1="-15.51" x2="0.256" y2="-13.079" xlink:href="#linear-gradient-7"/>
    <linearGradient id="linear-gradient-36" x1="0.644" y1="-0.34" x2="2.348" y2="-0.34" xlink:href="#linear-gradient-2"/>
    <linearGradient id="linear-gradient-37" x1="1.569" y1="-0.522" x2="1.672" y2="0.098" xlink:href="#linear-gradient-5"/>
    <linearGradient id="linear-gradient-38" x1="1.566" y1="-0.549" x2="1.597" y2="-0.358" xlink:href="#linear-gradient-5"/>
    <linearGradient id="linear-gradient-39" x1="-4.316" y1="-1.025" x2="-4.284" y2="-0.832" xlink:href="#linear-gradient-7"/>
  </defs>
  <g id="Group_49312" data-name="Group 49312" transform="translate(-377.243 -426.699)">
    <path id="Path_39790" data-name="Path 39790" d="M720.044,518.2c-35.884-49.116-97.319-52.184-101.118-52.36-48.453-2.248-83.041,22.461-95.513,31.66-9.053,6.677-21.619,16.107-33.348,32.686-5.352,7.565-23.98,35.631-24.277,73.4-.461,58.708,43.727,96.915,51.749,103.572,43.395,36.008,119.291,53.938,176.219,12.864C760.616,671.777,759.938,572.8,720.044,518.2Z" transform="translate(-79.418 -34.978)" fill="#f4f7fa" opacity="0.424"/>
    <g id="Group_47209" data-name="Group 47209" transform="translate(547.756 542.102)">
      <g id="Group_47208" data-name="Group 47208" transform="translate(0 0)">
        <path id="Path_39791" data-name="Path 39791" d="M2076.167,1685.879a14.678,14.678,0,0,1-5.34-4.408c-3.468-7.036-10.816-19.788-8.627-27.787.374-1.366,6.827-1.344,7.962-2.43,4.118-.984,5.607-1.07,9.063-3.929,10.2-8.44-4.148-31.369,18.645-33.546,16.7-1.594,28.781,6.6,32.234-18.07s32.092-64.888,54.177-42.506c12.675,12.845-6.649,30.356-2.291,47.206,4.141,16.012-4.523,26.642-21.753,32.084s-10.421,13.865-8.857,28.58c1.878,17.676-24.185,15.229-36.121,13.073C2105.645,1672.411,2080,1674.475,2076.167,1685.879Z" transform="translate(-2058.729 -1546.654)" fill="#d09727"/>
        <g id="Group_47207" data-name="Group 47207">
          <g id="Group_47206" data-name="Group 47206" clip-path="url(#clip-path)">
            <g id="Group_47205" data-name="Group 47205" transform="translate(7.764 -3.381)">
              <path id="Path_39792" data-name="Path 39792" d="M2107.424,1648.439l-.088-.354a144.874,144.874,0,0,0,73.709-45.21c18.826-21.372,32.241-48.475,38.793-78.376l.356.078c-6.566,29.962-20.009,57.121-38.877,78.54A145.234,145.234,0,0,1,2107.424,1648.439Z" transform="translate(-2107.336 -1523.397)" fill="#fcfdfe"/>
              <path id="Path_39793" data-name="Path 39793" d="M2465.767,2617.974c-13.8-8-38.59-13.378-55.244-11.984l-.031-.363c16.721-1.4,41.6,4,55.457,12.032Z" transform="translate(-2379.254 -2492.923)" fill="#fcfdfe"/>
              <path id="Path_39794" data-name="Path 39794" d="M2214.075,2231.39l-.183-.316c7.515-4.363,12.536-12.357,14.923-23.76,1.75-8.361,2.07-18.325.949-29.618l.363-.036c1.123,11.329.8,21.331-.956,29.728C2226.762,2218.9,2221.684,2226.972,2214.075,2231.39Z" transform="translate(-2202.912 -2109.254)" fill="#fcfdfe"/>
              <path id="Path_39795" data-name="Path 39795" d="M2848.43,2187.361l-.2-.306c13.737-8.949,30.971-8.477,43.011-6.505l-.059.36C2879.209,2178.948,2862.07,2178.476,2848.43,2187.361Z" transform="translate(-2771.885 -2110.788)" fill="#fcfdfe"/>
              <path id="Path_39796" data-name="Path 39796" d="M2991.488,1559.1l-.35-.1c2.2-7.62,4.268-23.6-6.536-45.027l.325-.164a79.787,79.787,0,0,1,7.467,22.146A51.788,51.788,0,0,1,2991.488,1559.1Z" transform="translate(-2894.204 -1513.811)" fill="#fcfdfe"/>
            </g>
          </g>
        </g>
      </g>
    </g>
    <g id="Group_47213" data-name="Group 47213" transform="translate(584 470.43)">
      <g id="Group_47212" data-name="Group 47212">
        <g id="Group_47211" data-name="Group 47211" clip-path="url(#clip-path-2)">
          <path id="Path_39798" data-name="Path 39798" d="M2411.117,1049.368q-13.437-1.976-26.839-4.569c-.146.131-3.082-19.34,6.167-29.551,18.289-19.782,5.97-37.536,2.456-48.056-5.567-14.824-2.639-30.876,12.448-31.113,16.734-.591,19.768-28.288,16.735-53.483-2.345-12.287,9.249-27.2,20.818-30.6,11.811-3.775,23.6,3.952,27.209,28.444,5.468,28.358-15.228,45.459-22.891,59.677-7.541,13.957,10,25.25-4.118,37.616-11.876,10.988-26.844,18.887-21.368,32.69C2427.36,1024.066,2426.013,1035.222,2411.117,1049.368Z" transform="translate(-2383.722 -851.085)" fill="#b27a0b"/>
          <g id="Group_47210" data-name="Group 47210" transform="translate(4.523 -6.025)">
            <path id="Path_39799" data-name="Path 39799" d="M2530.151,998.083l-.365-.006c0-.173,8.559-41.14,23.319-81,2.038-6.456,4.253-12.967,6.395-19.263,5.735-16.86,11.665-34.293,14.48-51.652,3.148-19.4,2.026-36.878-3.429-53.424l.346-.114c5.474,16.6,6.6,34.135,3.443,53.6-2.821,17.389-8.756,34.837-14.5,51.711-2.141,6.295-4.355,12.8-6.4,19.264A629.512,629.512,0,0,0,2530.151,998.083Z" transform="translate(-2519.259 -792.619)" fill="#fcfdfe"/>
            <path id="Path_39800" data-name="Path 39800" d="M2919.719,1128.541l-.271-.244c9.985-11.095,22.034-26.862,28.507-35.333,5.212-6.821,5.239-6.81,5.455-6.777l-.028.18.074.162c-.264.182-2.447,3.039-5.211,6.656C2941.768,1101.66,2929.713,1117.435,2919.719,1128.541Z" transform="translate(-2868.767 -1055.932)" fill="#fcfdfe"/>
            <path id="Path_39801" data-name="Path 39801" d="M2773.659,1054.906c-2.066-12.716-7.3-21.08-11.331-25.858-4.449-5.276-8.549-7.577-8.968-7.628a.139.139,0,0,0,.087-.026l-.2-.3c.091-.061.2-.046.441.059,1.106.481,5.238,3.066,9.573,8.453a53.983,53.983,0,0,1,10.761,25.244Z" transform="translate(-2719.69 -997.516)" fill="#fcfdfe"/>
            <path id="Path_39802" data-name="Path 39802" d="M2477.091,1740.721l-.362-.043c1.408-11.831-1.348-24.557-8.194-37.824A110.066,110.066,0,0,0,2455,1682.705c-.392-.468-.53-.633-.574-.709l.315-.183c.032.054.255.32.538.657a110.445,110.445,0,0,1,13.578,20.215C2475.739,1716.02,2478.509,1728.816,2477.091,1740.721Z" transform="translate(-2451.666 -1590.187)" fill="#fcfdfe"/>
            <path id="Path_39803" data-name="Path 39803" d="M2710.84,1969.893l-.31-.192c10.742-17.355,33.384-18.556,33.579-18.5l.135.171-.125.179-.058-.17-.016.178h0C2743.686,1951.56,2721.409,1952.817,2710.84,1969.893ZM2744,1951.207l.058.172Z" transform="translate(-2681.377 -1831.814)" fill="#fcfdfe"/>
            <path id="Path_39804" data-name="Path 39804" d="M2440.007,2483.633l-.365-.013c.189-5.151-1.652-13.932-11.5-26.51-.534-.682-.534-.682-.52-.784l.361.051-.181-.026.167-.068c.028.052.228.307.459.6C2438.345,2469.55,2440.2,2478.421,2440.007,2483.633Z" transform="translate(-2427.62 -2284.851)" fill="#fcfdfe"/>
            <path id="Path_39805" data-name="Path 39805" d="M2566.859,2459.679l-.35-.1c1.135-3.918,5.6-11.6,22.776-18.988.237-.1.39-.167.444-.2l.167.324c-.057.029-.217.1-.466.206C2572.4,2448.258,2567.977,2455.822,2566.859,2459.679Z" transform="translate(-2552.197 -2270.599)" fill="#fcfdfe"/>
          </g>
        </g>
      </g>
    </g>
    <g id="Group_47220" data-name="Group 47220" transform="translate(377.243 426.699)">
      <g id="Group_47216" data-name="Group 47216" transform="translate(44.931 44.292)">
        <path id="Path_39807" data-name="Path 39807" d="M1043.371,968.045c0,60.246-48.821,111.317-111.107,114.164-64.69,2.957-118.992-46.866-118.992-111.387s54.3-115.655,118.992-114.259C994.551,857.907,1043.371,907.8,1043.371,968.045Z" transform="translate(-813.272 -856.535)"/>
        <path id="Path_39808" data-name="Path 39808" d="M1113.561,968.045c0,60.246-48.82,111.317-111.107,114.164-64.69,2.957-118.992-46.866-118.992-111.387s54.3-115.655,118.992-114.259C1064.741,857.907,1113.561,907.8,1113.561,968.045Z" transform="translate(-876.229 -856.535)" fill="rgba(255,255,255,0.84)"/>
        <path id="Path_39809" data-name="Path 39809" d="M1166.533,1026.8c0,56.766-46.051,104.8-104.688,107.359-60.762,2.656-111.66-44.2-111.66-104.748s50.9-108.632,111.66-107.443C1120.482,923.112,1166.533,970.03,1166.533,1026.8Z" transform="translate(-936.077 -915.203)" fill="#2a2d43"/>
        <g id="Group_47214" data-name="Group 47214" transform="translate(53.962 53.244)">
          <path id="Path_39810" data-name="Path 39810" d="M1385.12,1437.031q7.074-9.181,7.074-27.463,0-17.486-7.193-26.907t-20.627-9.419q-27.423,0-27.423,36.326,0,17.807,7.154,27.225t20.269,9.419Q1378.044,1446.212,1385.12,1437.031Zm-20.588-7.273q-3.976,0-5.762-4.968t-1.789-15.063q0-10.094,1.789-14.983t5.762-4.889q7.631,0,7.631,19.872Q1372.163,1429.758,1364.532,1429.758Z" transform="translate(-1336.95 -1373.242)" fill="#fff"/>
          <path id="Path_39811" data-name="Path 39811" d="M2174.9,1833.154q-7.2-9.419-20.627-9.419-27.424,0-27.424,36.326,0,17.726,7.154,27.145t20.27,9.419q13.671,0,20.746-9.181t7.075-27.384Q2182.1,1842.575,2174.9,1833.154Zm-20.468,47.1q-3.976,0-5.763-4.968t-1.788-15.063q0-10.094,1.788-14.983t5.763-4.888q7.631,0,7.631,19.872Q2162.066,1880.251,2154.436,1880.251Z" transform="translate(-2045.458 -1777.314)" fill="#fff"/>
          <path id="Path_39812" data-name="Path 39812" d="M1689.849,1390.053a2.561,2.561,0,0,0-2.179-1.28h-11.786a5.123,5.123,0,0,0-4.451,2.656l-60.927,109.852a2.568,2.568,0,0,0,2.211,3.807h13.295a2.545,2.545,0,0,0,2.211-1.319l61.66-111.181A2.578,2.578,0,0,0,1689.849,1390.053Z" transform="translate(-1582.032 -1387.172)" fill="#fff"/>
        </g>
        <g id="Group_47215" data-name="Group 47215" transform="translate(7.233 5.033)" opacity="0.3" style="mix-blend-mode: multiply;isolation: isolate">
          <path id="Path_39813" data-name="Path 39813" d="M952.318,964.758c-3.825-12.468-3.65-31.4,15-59.383-48.121,13.863-83.86,57.5-83.86,109.7,0,64.521,54.3,114.344,118.992,111.387a117.22,117.22,0,0,0,63.536-22.151c-.553-17.207-4.3-36.043-14.824-53.416C1022.219,1003.124,964.32,1003.876,952.318,964.758Z" transform="translate(-883.462 -905.375)" opacity="0.3" fill="url(#linear-gradient)" style="mix-blend-mode: multiply;isolation: isolate"/>
        </g>
      </g>
      <g id="Group_47219" data-name="Group 47219">
        <g id="Group_47218" data-name="Group 47218" clip-path="url(#clip-path-3)">
          <g id="Group_47217" data-name="Group 47217" transform="translate(3.535 2.566)">
            <path id="Path_39814" data-name="Path 39814" d="M656.126,543.866v.352a153.141,153.141,0,0,0-12.494-13.427c-.065-.149-.174-.3-.238-.449a77.6,77.6,0,0,0-20.661-27.827c-.6-.563-1.295-1.06-1.937-1.592-.328-.259-.659-.528-.992-.787l-.486-.4c-.171-.132-.347-.251-.518-.378q-1.032-.746-2.07-1.5l-.518-.378-.545-.352c-.36-.237-.721-.475-1.081-.708-1.423-.981-2.956-1.83-4.453-2.727-.762-.435-1.561-.836-2.337-1.249-.383-.207-.776-.418-1.169-.62s-.808-.383-1.206-.572a78.089,78.089,0,0,0-20.578-6.54l-2.7-.422c-.9-.119-1.815-.193-2.711-.295l-1.358-.145-1.363-.07-1.363-.079c-.453-.022-.9-.066-1.358-.057-.905,0-1.811-.013-2.721-.018-.222,0-.462-.013-.67,0l-.605.031-1.21.062-1.2.057c-.106,0-.18,0-.319.013l-1.233.088-1.649.11-1.233.088-.208.013-.074,0s-.429,0,.291.013l-2.665.374c-.439.066-.882.106-1.321.2l-1.307.251-1.307.246-.651.123c-.217.04-.43.1-.642.15-.855.207-1.709.409-2.559.62-.429.088-.845.229-1.261.347l-1.247.374-1.247.356-1.219.427c-.813.29-1.626.545-2.416.853s-1.575.633-2.356.954a68.265,68.265,0,0,0-16.55,9.913l-.9.713-.85.761c-.563.5-1.146.981-1.681,1.5-.023.018-.042.044-.065.062-1.044,1.029-2.1,2-3.039,3.061-.249.259-.494.523-.734.787l-.37.387-.342.413c-.457.537-.91,1.078-1.363,1.61-.111.132-.231.259-.342.4l-.309.413c-.213.277-.42.554-.628.822-.406.554-.85,1.064-1.215,1.636a60.154,60.154,0,0,0-7.035,12.992,57.08,57.08,0,0,0-3.118,11.585c-.06.435-.12.862-.18,1.284s-.138.827-.157,1.236q-.1,1.227-.208,2.34c-.046.757-.046,1.482-.078,2.164-.014.343-.037.677-.042,1,.014.33.023.651.028.959.009.62.019,1.205.028,1.75a2.088,2.088,0,0,0,.033.339c.014.1.028.2.041.3.019.194.046.167.065.343.014.15.032.22.046.22h30.408l-18.477,19.506-42.953,44.729-61.434-64.234h32.3a4.562,4.562,0,0,0,.148-.941c.125-.893.259-1.764.406-2.824.083-.528.157-1.02.245-1.588.046-.277.088-.541.134-.831s.083-.594.143-.844c.226-1.064.462-2.186.711-3.382.134-.594.263-1.2.4-1.825s.323-1.258.5-1.909c.351-1.3.693-2.661,1.118-4.064q.679-2.091,1.409-4.345c.236-.756.545-1.5.832-2.269s.591-1.535.9-2.327A109.1,109.1,0,0,1,461.3,501.253a110.857,110.857,0,0,1,17.257-20.047c.836-.814,1.76-1.557,2.651-2.335.453-.383.9-.77,1.354-1.157l.688-.581.7-.554c.947-.734,1.9-1.478,2.855-2.221l.721-.554.748-.528c.5-.356,1-.708,1.506-1.06,1.972-1.438,4.093-2.736,6.2-4.073,1.062-.651,2.162-1.258,3.256-1.887.541-.308,1.09-.616,1.64-.932l1.69-.871a112.872,112.872,0,0,1,29.23-10.375c1.289-.242,2.587-.488,3.88-.73s2.61-.387,3.912-.576l1.958-.264,1.972-.185,1.968-.18c.656-.057,1.307-.128,1.968-.15,1.312-.057,2.628-.207,3.945-.264.323-.013.656-.132.984-.132h.989l1.963.106,1.963.062c.656,0,1.312.084,1.963.114l3.9.224c.887.013.3.022.531.026l.1.013.208.022.406.053.822.1,1.635.194.822.1.406.048.5.066,2.07.29,2.069.3,1.025.154c.337.053.637.123.961.185,1.261.255,2.522.515,3.783.765.628.119,1.247.29,1.866.444l1.862.471,1.848.471,1.824.55c1.21.374,2.425.726,3.612,1.13,1.187.422,2.365.845,3.543,1.267a102.863,102.863,0,0,1,25.2,13.748c.462.339.919.682,1.376,1.02s.887.708,1.326,1.069c.878.712,1.76,1.4,2.605,2.129,1.667,1.491,3.33,2.92,4.85,4.469.388.378.767.761,1.155,1.135l.568.563.545.585q1.088,1.174,2.148,2.331l.531.581.508.6c.328.4.665.8.993,1.192.656.8,1.344,1.552,1.935,2.375a96.292,96.292,0,0,1,8.532,12.97c1.146,2.089,2.166,4.169,3.067,6.223a88.5,88.5,0,0,1,5.7,17.557c.125.669.259,1.324.383,1.97s.263,1.271.342,1.9c.175,1.253.351,2.454.513,3.611.139,1.161.213,2.278.314,3.338.042.528.1,1.042.129,1.552s.13.994.153,1.478C655.965,542.1,656.126,543.017,656.126,543.866Z" transform="translate(-411.545 -451.598)" fill="url(#linear-gradient-2)"/>
            <path id="Path_39815" data-name="Path 39815" d="M1625.6,754.31v.352a153.15,153.15,0,0,0-12.495-13.427c-.065-.149-.174-.3-.238-.449a77.6,77.6,0,0,0-20.661-27.827c-.6-.563-1.295-1.06-1.937-1.592-.328-.259-.659-.528-.992-.787l-.486-.4c-.171-.132-.347-.251-.518-.378q-1.032-.745-2.07-1.5l-.518-.378-.545-.352c-.36-.238-.721-.475-1.081-.708-1.422-.981-2.956-1.83-4.453-2.727-.762-.435-1.561-.836-2.337-1.249-.383-.207-.776-.418-1.169-.62s-.808-.383-1.206-.572a78.09,78.09,0,0,0-20.578-6.54l-2.7-.422c-.9-.119-1.815-.193-2.711-.295l-1.358-.145-1.363-.07-1.363-.079c-.453-.022-.9-.066-1.358-.057-.905,0-1.811-.013-2.721-.018-.222,0-.462-.013-.67,0l-.605.031-1.21.062-1.2.057c-.106,0-.18,0-.319.013l-1.233.088-1.649.11-1.233.088-.208.013-.074,0s-.429,0,.291.013l-2.665.374c-.439.066-.882.105-1.321.2l-1.307.251-1.307.246-.651.123c-.217.04-.43.1-.642.15-.854.207-1.709.409-2.559.62-.429.088-.845.229-1.261.347l-1.247.374-1.247.356-1.219.427c-.813.29-1.626.545-2.416.853s-1.575.633-2.356.954a68.269,68.269,0,0,0-16.55,9.913l-.9.713-.85.761c-.563.5-1.146.981-1.681,1.5-.023.018-.042.044-.064.062,13.649-16.093,35.761-26.547,60.713-26.547,25.567,0,48.15,10.973,61.7,27.735,1.146,2.089,2.166,4.169,3.067,6.223a88.5,88.5,0,0,1,5.7,17.557c.125.669.259,1.324.383,1.97s.263,1.271.342,1.9c.175,1.253.351,2.454.512,3.611.139,1.161.213,2.278.314,3.338.041.528.1,1.042.129,1.552s.13.994.152,1.478C1625.437,752.542,1625.6,753.461,1625.6,754.31Z" transform="translate(-1381.017 -662.042)" opacity="0.4" fill="url(#linear-gradient-3)" style="mix-blend-mode: multiply;isolation: isolate"/>
          </g>
        </g>
      </g>
    </g>
    <g id="Group_47239" data-name="Group 47239" transform="translate(387.645 631.138)">
      <g id="Group_47222" data-name="Group 47222" transform="translate(11.77 69.769)">
        <path id="Path_39817" data-name="Path 39817" d="M592.653,3141.078v9.391c0,3.035,18.956,5.494,42.339,5.494s42.339-2.46,42.339-5.494v-9.391Z" transform="translate(-592.628 -3135.583)" fill="url(#linear-gradient-4)"/>
        <path id="Path_39818" data-name="Path 39818" d="M677.331,3093.251c0,3.035-18.956,5.495-42.339,5.495s-42.339-2.46-42.339-5.495,18.956-5.495,42.339-5.495S677.331,3090.217,677.331,3093.251Z" transform="translate(-592.628 -3087.757)" fill="url(#linear-gradient-5)"/>
        <path id="Path_39819" data-name="Path 39819" d="M634.777,3142.62c-20.709,0-42.363-1.978-42.363-5.793,0-.209.075-.578.284-.578s.119.288.119.5c0,2.419,17.232,5.115,41.96,5.115s41.96-2.7,41.96-5.115c0-.209.036-.406.245-.406s.159.279.159.489C677.142,3140.645,655.486,3142.62,634.777,3142.62Z" transform="translate(-592.414 -3131.252)" fill="url(#linear-gradient-6)"/>
        <g id="Group_47221" data-name="Group 47221" transform="translate(15.693 3.413)">
          <path id="Path_39820" data-name="Path 39820" d="M767.373,3123.265c.415-.287.858-.571,1.331-.851a8.367,8.367,0,0,1,1.819-.758,17.391,17.391,0,0,1,2.791-.552,35.376,35.376,0,0,1,4.181-.226q2.454-.012,4.608.156a31.354,31.354,0,0,1,3.789.5,11.72,11.72,0,0,1,2.66.825,2.105,2.105,0,0,1,1.216,1.127l4.767.048a4.712,4.712,0,0,1,.914.084c.266.054.4.123.4.206l0,.393-6.129-.059a3.09,3.09,0,0,1-1.643,1.319,16.621,16.621,0,0,1-3.361,1.037l-2.232-.311a2.579,2.579,0,0,1-.493-.116c-.129-.047-.191-.1-.191-.153q0-.114.518-.258t1.169-.36a11.765,11.765,0,0,0,1.279-.506,1.735,1.735,0,0,0,.839-.7l-14.466-.143a13.766,13.766,0,0,1-1.277.824,8.335,8.335,0,0,1-1.877.729,19.617,19.617,0,0,1-2.911.526,41.1,41.1,0,0,1-4.389.215c-1.326.006-2.617-.044-3.881-.15a26.56,26.56,0,0,1-3.368-.48,10.506,10.506,0,0,1-2.416-.791c-.627-.314-.979-.676-1.052-1.083l-3.925-.04a5.126,5.126,0,0,1-.927-.082c-.271-.052-.409-.122-.409-.209l0-.392,5.366.051a2.883,2.883,0,0,1,1.467-1.081,16.762,16.762,0,0,1,2.723-.82l1.8.247c.546.076.817.166.817.269,0,.056-.11.125-.336.207s-.5.181-.806.3a7.373,7.373,0,0,0-.894.4,1.9,1.9,0,0,0-.654.524Zm-13.239.535a1.423,1.423,0,0,0,.713.666,5.675,5.675,0,0,0,1.364.46,13.864,13.864,0,0,0,1.837.265q1.025.084,2.142.079a22.328,22.328,0,0,0,2.274-.113,13.146,13.146,0,0,0,1.7-.288,7.942,7.942,0,0,0,1.28-.422,7.129,7.129,0,0,0,.977-.522Zm31.492-.351a1.475,1.475,0,0,0-.779-.686,7.022,7.022,0,0,0-1.568-.495,17.321,17.321,0,0,0-2.223-.3q-1.264-.1-2.794-.09a21.471,21.471,0,0,0-2.341.122,12.071,12.071,0,0,0-1.7.309,6.188,6.188,0,0,0-1.222.452,8.744,8.744,0,0,0-.938.552Z" transform="translate(-744.703 -3120.877)" fill="#fcb048"/>
        </g>
        <path id="Path_39821" data-name="Path 39821" d="M640.8,3093.529c-18.878,0-38.535,1.661-41.679,4.877a3.821,3.821,0,0,1,.344.362c2.65-2.233,18.881-4.481,41.335-4.481,23.031,0,39.522,2.365,41.519,4.653a3.945,3.945,0,0,1,.317-.359C680.035,3095.251,660.009,3093.529,640.8,3093.529Z" transform="translate(-598.426 -3092.934)" fill="url(#linear-gradient-7)"/>
      </g>
      <g id="Group_47224" data-name="Group 47224" transform="translate(0 59.905)">
        <path id="Path_39822" data-name="Path 39822" d="M478.431,3045.351v9.391c0,3.034,18.956,5.494,42.339,5.494s42.339-2.46,42.339-5.494v-9.391Z" transform="translate(-478.406 -3039.857)" fill="url(#linear-gradient-4)"/>
        <path id="Path_39823" data-name="Path 39823" d="M563.109,2997.525c0,3.035-18.956,5.494-42.339,5.494s-42.339-2.46-42.339-5.494,18.956-5.494,42.339-5.494S563.109,2994.491,563.109,2997.525Z" transform="translate(-478.406 -2992.031)" fill="url(#linear-gradient-5)"/>
        <path id="Path_39824" data-name="Path 39824" d="M520.555,3046.895c-20.709,0-42.363-1.978-42.363-5.793,0-.209.075-.578.284-.578s.119.288.119.5c0,2.419,17.232,5.115,41.96,5.115s41.96-2.7,41.96-5.115c0-.209.036-.406.245-.406s.159.28.159.489C562.92,3044.92,541.264,3046.895,520.555,3046.895Z" transform="translate(-478.192 -3035.527)" fill="url(#linear-gradient-6)"/>
        <g id="Group_47223" data-name="Group 47223" transform="translate(15.692 3.413)">
          <path id="Path_39825" data-name="Path 39825" d="M653.15,3027.538c.415-.288.858-.571,1.331-.851a8.38,8.38,0,0,1,1.819-.758,17.4,17.4,0,0,1,2.791-.552,35.374,35.374,0,0,1,4.18-.226q2.455-.012,4.608.156a31.346,31.346,0,0,1,3.789.5,11.729,11.729,0,0,1,2.66.825,2.106,2.106,0,0,1,1.216,1.127l4.767.048a4.709,4.709,0,0,1,.914.084c.266.054.4.123.4.206l0,.393-6.129-.059a3.091,3.091,0,0,1-1.643,1.319,16.638,16.638,0,0,1-3.361,1.037l-2.232-.31a2.6,2.6,0,0,1-.493-.117c-.129-.047-.191-.1-.191-.153q0-.114.518-.258t1.169-.36a11.831,11.831,0,0,0,1.279-.506,1.734,1.734,0,0,0,.839-.7l-14.466-.143a13.712,13.712,0,0,1-1.278.824,8.318,8.318,0,0,1-1.876.729,19.592,19.592,0,0,1-2.911.526,41.163,41.163,0,0,1-4.389.215c-1.326.006-2.617-.044-3.881-.15a26.523,26.523,0,0,1-3.368-.48,10.493,10.493,0,0,1-2.416-.791c-.627-.314-.979-.675-1.052-1.083l-3.925-.04a5.128,5.128,0,0,1-.927-.082c-.271-.052-.408-.122-.409-.209l0-.393,5.366.051a2.884,2.884,0,0,1,1.467-1.081,16.768,16.768,0,0,1,2.723-.819l1.8.247c.546.077.817.166.817.269,0,.056-.11.125-.336.207s-.5.181-.806.3a7.422,7.422,0,0,0-.894.4,1.9,1.9,0,0,0-.654.524Zm-13.239.535a1.423,1.423,0,0,0,.713.666,5.686,5.686,0,0,0,1.364.46,13.994,13.994,0,0,0,1.837.264q1.025.084,2.142.079a22.328,22.328,0,0,0,2.274-.113,13.156,13.156,0,0,0,1.7-.288,7.963,7.963,0,0,0,1.279-.423,7.123,7.123,0,0,0,.978-.522Zm31.492-.351a1.474,1.474,0,0,0-.779-.686,7.03,7.03,0,0,0-1.568-.495,17.319,17.319,0,0,0-2.223-.3q-1.264-.1-2.794-.09a21.356,21.356,0,0,0-2.341.121,12.038,12.038,0,0,0-1.7.309,6.206,6.206,0,0,0-1.222.452,8.712,8.712,0,0,0-.937.552Z" transform="translate(-630.48 -3025.15)" fill="#fcb048"/>
        </g>
        <path id="Path_39826" data-name="Path 39826" d="M526.573,2997.8c-18.878,0-38.535,1.661-41.679,4.877a3.8,3.8,0,0,1,.344.362c2.65-2.233,18.881-4.481,41.335-4.481,23.031,0,39.522,2.365,41.519,4.653a3.935,3.935,0,0,1,.317-.359C565.812,2999.524,545.786,2997.8,526.573,2997.8Z" transform="translate(-484.203 -2997.207)" fill="url(#linear-gradient-11)"/>
      </g>
      <g id="Group_47226" data-name="Group 47226" transform="translate(10.156 50.07)">
        <path id="Path_39827" data-name="Path 39827" d="M576.989,2949.905v9.391c0,3.035,18.956,5.494,42.339,5.494s42.339-2.46,42.339-5.494v-9.391Z" transform="translate(-576.964 -2944.411)" fill="url(#linear-gradient-4)"/>
        <path id="Path_39828" data-name="Path 39828" d="M661.667,2902.079c0,3.035-18.956,5.495-42.339,5.495s-42.339-2.46-42.339-5.495,18.956-5.494,42.339-5.494S661.667,2899.045,661.667,2902.079Z" transform="translate(-576.964 -2896.585)" fill="url(#linear-gradient-13)"/>
        <path id="Path_39829" data-name="Path 39829" d="M619.114,2951.449c-20.709,0-42.364-1.978-42.364-5.793,0-.209.075-.578.284-.578s.119.288.119.5c0,2.419,17.232,5.115,41.96,5.115s41.96-2.7,41.96-5.115c0-.209.036-.406.245-.406s.159.28.159.489C661.478,2949.474,639.822,2951.449,619.114,2951.449Z" transform="translate(-576.75 -2940.081)" fill="url(#linear-gradient-6)"/>
        <g id="Group_47225" data-name="Group 47225" transform="translate(15.693 3.413)">
          <path id="Path_39830" data-name="Path 39830" d="M751.709,2932.092c.415-.288.857-.571,1.331-.851a8.369,8.369,0,0,1,1.819-.758,17.4,17.4,0,0,1,2.791-.552,35.428,35.428,0,0,1,4.181-.226q2.455-.012,4.608.156a31.406,31.406,0,0,1,3.79.5,11.721,11.721,0,0,1,2.66.825,2.106,2.106,0,0,1,1.216,1.127l4.767.048a4.693,4.693,0,0,1,.914.084c.266.054.4.123.4.206l0,.392-6.129-.059a3.091,3.091,0,0,1-1.643,1.319,16.639,16.639,0,0,1-3.361,1.037l-2.232-.31a2.557,2.557,0,0,1-.493-.117c-.129-.047-.191-.1-.192-.153q0-.114.518-.258t1.169-.36a11.832,11.832,0,0,0,1.279-.506,1.735,1.735,0,0,0,.839-.7l-14.466-.144a13.727,13.727,0,0,1-1.278.824,8.34,8.34,0,0,1-1.876.729,19.651,19.651,0,0,1-2.911.526,41.174,41.174,0,0,1-4.389.215c-1.326.006-2.617-.044-3.881-.15a26.526,26.526,0,0,1-3.368-.48,10.492,10.492,0,0,1-2.416-.791c-.627-.314-.979-.675-1.052-1.083l-3.925-.041a5.123,5.123,0,0,1-.927-.082c-.271-.052-.409-.122-.409-.209l0-.393,5.366.051a2.882,2.882,0,0,1,1.467-1.081,16.743,16.743,0,0,1,2.723-.819l1.8.247c.546.076.817.166.817.269,0,.056-.11.125-.336.207s-.5.181-.806.3a7.4,7.4,0,0,0-.894.4,1.9,1.9,0,0,0-.654.523Zm-13.239.535a1.422,1.422,0,0,0,.713.666,5.669,5.669,0,0,0,1.364.46,13.978,13.978,0,0,0,1.837.265q1.025.084,2.142.079a22.326,22.326,0,0,0,2.274-.113,13.192,13.192,0,0,0,1.7-.288,7.96,7.96,0,0,0,1.28-.423,7.137,7.137,0,0,0,.977-.522Zm31.492-.351a1.473,1.473,0,0,0-.779-.686,7.022,7.022,0,0,0-1.568-.495,17.27,17.27,0,0,0-2.223-.3q-1.264-.1-2.794-.09a21.421,21.421,0,0,0-2.341.121,12.041,12.041,0,0,0-1.7.309,6.178,6.178,0,0,0-1.222.452,8.594,8.594,0,0,0-.937.552Z" transform="translate(-729.039 -2929.704)" fill="#fcb048"/>
        </g>
        <path id="Path_39831" data-name="Path 39831" d="M625.131,2902.356c-18.878,0-38.535,1.661-41.679,4.877a3.822,3.822,0,0,1,.344.362c2.65-2.233,18.881-4.481,41.335-4.481,23.031,0,39.522,2.365,41.519,4.653a3.869,3.869,0,0,1,.317-.359C664.37,2904.079,644.344,2902.356,625.131,2902.356Z" transform="translate(-582.761 -2901.761)" fill="url(#linear-gradient-15)"/>
      </g>
      <g id="Group_47228" data-name="Group 47228" transform="translate(16.319 40.206)">
        <path id="Path_39832" data-name="Path 39832" d="M636.8,2854.18v9.391c0,3.035,18.956,5.495,42.339,5.495s42.339-2.46,42.339-5.495v-9.391Z" transform="translate(-636.773 -2848.685)" fill="url(#linear-gradient-4)"/>
        <ellipse id="Ellipse_4162" data-name="Ellipse 4162" cx="42.339" cy="5.494" rx="42.339" ry="5.494" transform="translate(0.025)" fill="url(#linear-gradient-13)"/>
        <path id="Path_39833" data-name="Path 39833" d="M678.921,2855.722c-20.709,0-42.363-1.978-42.363-5.793,0-.209.075-.578.284-.578s.119.288.119.5c0,2.419,17.232,5.115,41.96,5.115s41.96-2.7,41.96-5.115c0-.209.036-.406.245-.406s.159.28.159.489C721.286,2853.747,699.63,2855.722,678.921,2855.722Z" transform="translate(-636.558 -2844.354)" fill="url(#linear-gradient-6)"/>
        <g id="Group_47227" data-name="Group 47227" transform="translate(15.693 3.413)">
          <path id="Path_39834" data-name="Path 39834" d="M811.518,2836.366c.415-.288.858-.571,1.331-.851a8.359,8.359,0,0,1,1.819-.758,17.372,17.372,0,0,1,2.791-.552,35.423,35.423,0,0,1,4.181-.226q2.454-.012,4.608.156a31.4,31.4,0,0,1,3.789.5,11.736,11.736,0,0,1,2.66.825,2.108,2.108,0,0,1,1.216,1.127l4.767.048a4.708,4.708,0,0,1,.914.085c.266.054.4.123.4.206l0,.393-6.129-.059a3.09,3.09,0,0,1-1.643,1.32,16.685,16.685,0,0,1-3.361,1.037l-2.232-.311a2.594,2.594,0,0,1-.493-.117c-.129-.047-.191-.1-.191-.153q0-.114.518-.258t1.169-.36a11.768,11.768,0,0,0,1.279-.506,1.737,1.737,0,0,0,.839-.7l-14.466-.144a13.736,13.736,0,0,1-1.278.824,8.307,8.307,0,0,1-1.877.729,19.615,19.615,0,0,1-2.911.526,41.179,41.179,0,0,1-4.389.214c-1.326.007-2.617-.044-3.881-.15a26.532,26.532,0,0,1-3.368-.48,10.507,10.507,0,0,1-2.416-.791c-.627-.315-.979-.675-1.052-1.083l-3.925-.04a5.149,5.149,0,0,1-.927-.082c-.271-.052-.409-.122-.409-.209l0-.393,5.366.051a2.883,2.883,0,0,1,1.467-1.081,16.789,16.789,0,0,1,2.723-.819l1.8.247c.546.077.817.167.817.27,0,.056-.11.125-.336.207s-.5.181-.806.3a7.393,7.393,0,0,0-.894.4,1.9,1.9,0,0,0-.654.523Zm-13.239.535a1.424,1.424,0,0,0,.713.665,5.685,5.685,0,0,0,1.364.461,14.03,14.03,0,0,0,1.837.264q1.025.084,2.142.079a22.34,22.34,0,0,0,2.274-.112,13.232,13.232,0,0,0,1.7-.288,7.919,7.919,0,0,0,1.279-.423,7.111,7.111,0,0,0,.977-.522Zm31.492-.351a1.476,1.476,0,0,0-.779-.686,7.027,7.027,0,0,0-1.568-.495,17.276,17.276,0,0,0-2.223-.3q-1.264-.1-2.794-.091a21.48,21.48,0,0,0-2.341.121,12.07,12.07,0,0,0-1.7.309,6.19,6.19,0,0,0-1.222.452,8.611,8.611,0,0,0-.937.552Z" transform="translate(-788.848 -2833.979)" fill="#fcb048"/>
        </g>
        <path id="Path_39835" data-name="Path 39835" d="M684.939,2806.631c-18.878,0-38.535,1.661-41.679,4.877a3.79,3.79,0,0,1,.344.362c2.65-2.233,18.881-4.48,41.335-4.48,23.031,0,39.521,2.365,41.519,4.653a3.851,3.851,0,0,1,.317-.358C724.178,2808.354,704.152,2806.631,684.939,2806.631Z" transform="translate(-642.569 -2806.036)" fill="url(#linear-gradient-19)"/>
      </g>
      <g id="Group_47230" data-name="Group 47230" transform="translate(11.77 29.563)">
        <path id="Path_39836" data-name="Path 39836" d="M592.653,2750.9v9.391c0,3.035,18.956,5.494,42.339,5.494s42.339-2.46,42.339-5.494V2750.9Z" transform="translate(-592.628 -2745.407)" fill="url(#linear-gradient-4)"/>
        <path id="Path_39837" data-name="Path 39837" d="M677.331,2703.075c0,3.035-18.956,5.495-42.339,5.495s-42.339-2.46-42.339-5.495,18.956-5.494,42.339-5.494S677.331,2700.041,677.331,2703.075Z" transform="translate(-592.628 -2697.581)" fill="url(#linear-gradient-13)"/>
        <path id="Path_39838" data-name="Path 39838" d="M634.777,2752.444c-20.709,0-42.363-1.978-42.363-5.793,0-.209.075-.578.284-.578s.119.288.119.5c0,2.42,17.232,5.115,41.96,5.115s41.96-2.7,41.96-5.115c0-.209.036-.406.245-.406s.159.28.159.489C677.142,2750.469,655.486,2752.444,634.777,2752.444Z" transform="translate(-592.414 -2741.076)" fill="url(#linear-gradient-6)"/>
        <g id="Group_47229" data-name="Group 47229" transform="translate(15.693 3.413)">
          <path id="Path_39839" data-name="Path 39839" d="M767.373,2733.088c.415-.288.858-.571,1.331-.851a8.379,8.379,0,0,1,1.819-.758,17.391,17.391,0,0,1,2.791-.552,35.475,35.475,0,0,1,4.181-.226q2.454-.012,4.608.156a31.354,31.354,0,0,1,3.789.5,11.734,11.734,0,0,1,2.66.825,2.107,2.107,0,0,1,1.216,1.127l4.767.048a4.71,4.71,0,0,1,.914.085c.266.054.4.123.4.206l0,.393-6.129-.059a3.091,3.091,0,0,1-1.643,1.319,16.653,16.653,0,0,1-3.361,1.037l-2.232-.311a2.6,2.6,0,0,1-.493-.117c-.129-.047-.191-.1-.191-.153q0-.113.518-.258t1.169-.36a11.814,11.814,0,0,0,1.279-.506,1.737,1.737,0,0,0,.839-.7l-14.466-.143a13.666,13.666,0,0,1-1.277.824,8.321,8.321,0,0,1-1.877.729,19.713,19.713,0,0,1-2.911.526,41.241,41.241,0,0,1-4.389.215c-1.326.007-2.617-.044-3.881-.151a26.566,26.566,0,0,1-3.368-.48,10.517,10.517,0,0,1-2.416-.791c-.627-.315-.979-.675-1.052-1.083l-3.925-.041a5.148,5.148,0,0,1-.927-.082c-.271-.052-.409-.122-.409-.209l0-.393,5.366.051a2.883,2.883,0,0,1,1.467-1.081,16.815,16.815,0,0,1,2.723-.819l1.8.247c.546.077.817.166.817.269,0,.056-.11.125-.336.207s-.5.181-.806.3a7.412,7.412,0,0,0-.894.4,1.9,1.9,0,0,0-.654.523Zm-13.239.535a1.424,1.424,0,0,0,.713.665,5.675,5.675,0,0,0,1.364.46,13.9,13.9,0,0,0,1.837.265q1.025.084,2.142.079a22.341,22.341,0,0,0,2.274-.112,13.144,13.144,0,0,0,1.7-.288,7.941,7.941,0,0,0,1.28-.423,7.1,7.1,0,0,0,.977-.522Zm31.492-.351a1.476,1.476,0,0,0-.779-.686,7.047,7.047,0,0,0-1.568-.495,17.371,17.371,0,0,0-2.223-.3q-1.264-.1-2.794-.091a21.539,21.539,0,0,0-2.341.121,12.142,12.142,0,0,0-1.7.309,6.2,6.2,0,0,0-1.222.452,8.744,8.744,0,0,0-.938.552Z" transform="translate(-744.703 -2730.7)" fill="#fcb048"/>
        </g>
        <path id="Path_39840" data-name="Path 39840" d="M640.8,2703.353c-18.878,0-38.535,1.661-41.679,4.877a3.881,3.881,0,0,1,.344.362c2.65-2.233,18.881-4.481,41.335-4.481,23.031,0,39.522,2.365,41.519,4.653a3.916,3.916,0,0,1,.317-.359C680.035,2705.075,660.009,2703.353,640.8,2703.353Z" transform="translate(-598.426 -2702.758)" fill="url(#linear-gradient-23)"/>
      </g>
      <g id="Group_47232" data-name="Group 47232" transform="translate(0 19.699)">
        <path id="Path_39841" data-name="Path 39841" d="M478.431,2655.176v9.391c0,3.035,18.956,5.494,42.339,5.494s42.339-2.46,42.339-5.494v-9.391Z" transform="translate(-478.406 -2649.681)" fill="url(#linear-gradient-4)"/>
        <ellipse id="Ellipse_4163" data-name="Ellipse 4163" cx="42.339" cy="5.494" rx="42.339" ry="5.494" transform="translate(0.025)" fill="url(#linear-gradient-13)"/>
        <path id="Path_39842" data-name="Path 39842" d="M520.555,2656.718c-20.709,0-42.363-1.978-42.363-5.793,0-.21.075-.578.284-.578s.119.288.119.5c0,2.42,17.232,5.115,41.96,5.115s41.96-2.7,41.96-5.115c0-.21.036-.406.245-.406s.159.28.159.489C562.92,2654.743,541.264,2656.718,520.555,2656.718Z" transform="translate(-478.192 -2645.35)" fill="url(#linear-gradient-6)"/>
        <g id="Group_47231" data-name="Group 47231" transform="translate(15.692 3.413)">
          <path id="Path_39843" data-name="Path 39843" d="M653.15,2637.362c.415-.288.858-.571,1.331-.851a8.38,8.38,0,0,1,1.819-.758,17.375,17.375,0,0,1,2.791-.552,35.269,35.269,0,0,1,4.18-.226q2.455-.012,4.608.156a31.391,31.391,0,0,1,3.789.5,11.729,11.729,0,0,1,2.66.825,2.105,2.105,0,0,1,1.216,1.127l4.767.048a4.728,4.728,0,0,1,.914.084c.266.054.4.123.4.207l0,.392-6.129-.059a3.092,3.092,0,0,1-1.643,1.319,16.654,16.654,0,0,1-3.361,1.037l-2.232-.311a2.576,2.576,0,0,1-.493-.117c-.129-.046-.191-.1-.191-.153q0-.113.518-.258t1.169-.36a11.781,11.781,0,0,0,1.279-.506,1.735,1.735,0,0,0,.839-.7l-14.466-.144a13.662,13.662,0,0,1-1.278.825,8.342,8.342,0,0,1-1.876.729,19.561,19.561,0,0,1-2.911.526,41.1,41.1,0,0,1-4.389.215c-1.326.007-2.617-.044-3.881-.15a26.57,26.57,0,0,1-3.368-.48,10.517,10.517,0,0,1-2.416-.791c-.627-.314-.979-.676-1.052-1.083l-3.925-.041a5.084,5.084,0,0,1-.927-.082c-.271-.052-.408-.122-.409-.209l0-.393,5.366.051a2.885,2.885,0,0,1,1.467-1.081,16.866,16.866,0,0,1,2.723-.819l1.8.247c.546.077.817.167.817.27,0,.055-.11.125-.336.207s-.5.181-.806.3a7.307,7.307,0,0,0-.894.4,1.9,1.9,0,0,0-.654.523Zm-13.239.535a1.422,1.422,0,0,0,.713.665,5.675,5.675,0,0,0,1.364.461,13.955,13.955,0,0,0,1.837.264q1.025.084,2.142.079a22.4,22.4,0,0,0,2.274-.112,13.153,13.153,0,0,0,1.7-.288,7.988,7.988,0,0,0,1.279-.422,7.177,7.177,0,0,0,.978-.522Zm31.492-.351a1.477,1.477,0,0,0-.779-.686,7.031,7.031,0,0,0-1.568-.495,17.316,17.316,0,0,0-2.223-.3q-1.264-.1-2.794-.091a21.6,21.6,0,0,0-2.341.122,12.177,12.177,0,0,0-1.7.309,6.222,6.222,0,0,0-1.222.452,8.752,8.752,0,0,0-.937.552Z" transform="translate(-630.48 -2634.975)" fill="#fcb048"/>
        </g>
        <path id="Path_39844" data-name="Path 39844" d="M526.573,2607.626c-18.878,0-38.535,1.661-41.679,4.877a3.857,3.857,0,0,1,.344.362c2.65-2.233,18.881-4.48,41.335-4.48,23.031,0,39.522,2.365,41.519,4.653a3.935,3.935,0,0,1,.317-.359C565.812,2609.349,545.786,2607.626,526.573,2607.626Z" transform="translate(-484.203 -2607.031)" fill="url(#linear-gradient-27)"/>
      </g>
      <g id="Group_47234" data-name="Group 47234" transform="translate(10.156 9.864)">
        <path id="Path_39845" data-name="Path 39845" d="M576.989,2559.731v9.391c0,3.034,18.956,5.495,42.339,5.495s42.339-2.46,42.339-5.495v-9.391Z" transform="translate(-576.964 -2554.236)" fill="url(#linear-gradient-4)"/>
        <ellipse id="Ellipse_4164" data-name="Ellipse 4164" cx="42.339" cy="5.494" rx="42.339" ry="5.494" transform="translate(0.025)" fill="url(#linear-gradient-13)"/>
        <path id="Path_39846" data-name="Path 39846" d="M619.114,2561.272c-20.709,0-42.364-1.978-42.364-5.793,0-.21.075-.578.284-.578s.119.288.119.5c0,2.419,17.232,5.115,41.96,5.115s41.96-2.7,41.96-5.115c0-.21.036-.406.245-.406s.159.28.159.489C661.478,2559.3,639.822,2561.272,619.114,2561.272Z" transform="translate(-576.75 -2549.904)" fill="url(#linear-gradient-6)"/>
        <g id="Group_47233" data-name="Group 47233" transform="translate(15.693 3.413)">
          <path id="Path_39847" data-name="Path 39847" d="M751.709,2541.917c.415-.288.857-.571,1.331-.851a8.381,8.381,0,0,1,1.819-.758,17.4,17.4,0,0,1,2.791-.552,35.428,35.428,0,0,1,4.181-.226q2.455-.012,4.608.156a31.357,31.357,0,0,1,3.79.5,11.745,11.745,0,0,1,2.66.825,2.106,2.106,0,0,1,1.216,1.127l4.767.048a4.692,4.692,0,0,1,.914.085c.266.054.4.123.4.206l0,.393-6.129-.059a3.088,3.088,0,0,1-1.643,1.319,16.636,16.636,0,0,1-3.361,1.037l-2.232-.311a2.615,2.615,0,0,1-.493-.116c-.129-.047-.191-.1-.192-.154q0-.113.518-.258t1.169-.36a11.782,11.782,0,0,0,1.279-.506,1.735,1.735,0,0,0,.839-.7l-14.466-.143a13.727,13.727,0,0,1-1.278.824,8.317,8.317,0,0,1-1.876.729,19.623,19.623,0,0,1-2.911.526,41.1,41.1,0,0,1-4.389.215c-1.326.007-2.617-.044-3.881-.15a26.571,26.571,0,0,1-3.368-.48,10.492,10.492,0,0,1-2.416-.791c-.627-.314-.979-.675-1.052-1.083l-3.925-.04a5.145,5.145,0,0,1-.927-.082c-.271-.052-.409-.122-.409-.209l0-.393,5.366.051a2.885,2.885,0,0,1,1.467-1.081,16.818,16.818,0,0,1,2.723-.819l1.8.247c.546.077.817.166.817.27,0,.055-.11.124-.336.207s-.5.181-.806.3a7.4,7.4,0,0,0-.894.4,1.9,1.9,0,0,0-.654.524Zm-13.239.535a1.421,1.421,0,0,0,.713.665,5.668,5.668,0,0,0,1.364.461,13.86,13.86,0,0,0,1.837.264q1.025.084,2.142.079a22.2,22.2,0,0,0,2.274-.112,13.145,13.145,0,0,0,1.7-.288,7.913,7.913,0,0,0,1.28-.422,7.137,7.137,0,0,0,.977-.522Zm31.492-.351a1.476,1.476,0,0,0-.779-.686,7.047,7.047,0,0,0-1.568-.495,17.356,17.356,0,0,0-2.223-.3q-1.264-.1-2.794-.09a21.489,21.489,0,0,0-2.341.121,12.147,12.147,0,0,0-1.7.309,6.224,6.224,0,0,0-1.222.452,8.713,8.713,0,0,0-.937.552Z" transform="translate(-729.039 -2539.529)" fill="#fcb048"/>
        </g>
        <path id="Path_39848" data-name="Path 39848" d="M625.131,2512.18c-18.878,0-38.535,1.661-41.679,4.877a3.879,3.879,0,0,1,.344.362c2.65-2.233,18.881-4.48,41.335-4.48,23.031,0,39.522,2.365,41.519,4.653a3.838,3.838,0,0,1,.317-.359C664.37,2513.9,644.344,2512.18,625.131,2512.18Z" transform="translate(-582.761 -2511.585)" fill="url(#linear-gradient-31)"/>
      </g>
      <g id="Group_47236" data-name="Group 47236" transform="translate(4.873)">
        <path id="Path_39849" data-name="Path 39849" d="M525.725,2464v9.391c0,3.034,18.956,5.494,42.339,5.494s42.339-2.46,42.339-5.494V2464Z" transform="translate(-525.7 -2458.509)" fill="url(#linear-gradient-4)"/>
        <ellipse id="Ellipse_4165" data-name="Ellipse 4165" cx="42.339" cy="5.494" rx="42.339" ry="5.494" transform="translate(0.025)" fill="url(#linear-gradient-13)"/>
        <path id="Path_39850" data-name="Path 39850" d="M567.849,2465.546c-20.709,0-42.363-1.978-42.363-5.793,0-.209.075-.578.284-.578s.119.288.119.5c0,2.42,17.232,5.115,41.96,5.115s41.96-2.7,41.96-5.115c0-.209.036-.406.245-.406s.159.28.159.489C610.214,2463.571,588.558,2465.546,567.849,2465.546Z" transform="translate(-525.486 -2454.178)" fill="url(#linear-gradient-6)"/>
        <g id="Group_47235" data-name="Group 47235" transform="translate(15.692 3.413)">
          <path id="Path_39851" data-name="Path 39851" d="M700.444,2446.191c.416-.288.858-.571,1.331-.851a8.375,8.375,0,0,1,1.819-.758,17.455,17.455,0,0,1,2.791-.552,35.428,35.428,0,0,1,4.181-.226q2.455-.012,4.608.156a31.354,31.354,0,0,1,3.79.5,11.72,11.72,0,0,1,2.66.825,2.105,2.105,0,0,1,1.216,1.127l4.767.049a4.691,4.691,0,0,1,.914.084c.266.054.4.123.4.206l0,.392-6.129-.059a3.09,3.09,0,0,1-1.643,1.319,16.669,16.669,0,0,1-3.361,1.037l-2.232-.311a2.615,2.615,0,0,1-.493-.116c-.129-.047-.191-.1-.191-.154q0-.114.518-.258t1.169-.36a11.78,11.78,0,0,0,1.279-.505,1.739,1.739,0,0,0,.839-.7l-14.466-.144a13.725,13.725,0,0,1-1.278.824,8.3,8.3,0,0,1-1.877.729,19.615,19.615,0,0,1-2.911.526,41.113,41.113,0,0,1-4.389.214c-1.326.007-2.617-.044-3.881-.15a26.523,26.523,0,0,1-3.368-.48,10.5,10.5,0,0,1-2.416-.791c-.627-.314-.979-.675-1.052-1.083l-3.925-.04a5.148,5.148,0,0,1-.927-.082c-.271-.052-.408-.122-.409-.209l0-.393,5.366.051a2.883,2.883,0,0,1,1.467-1.081,16.76,16.76,0,0,1,2.723-.819l1.8.247c.546.077.817.166.817.269,0,.056-.11.125-.336.207s-.5.181-.806.3a7.4,7.4,0,0,0-.894.4,1.9,1.9,0,0,0-.654.523Zm-13.239.535a1.423,1.423,0,0,0,.713.666,5.671,5.671,0,0,0,1.364.46,13.951,13.951,0,0,0,1.837.264q1.025.084,2.142.079a22.332,22.332,0,0,0,2.274-.112,13.235,13.235,0,0,0,1.7-.288,7.919,7.919,0,0,0,1.279-.423,7.125,7.125,0,0,0,.977-.522Zm31.492-.351a1.474,1.474,0,0,0-.779-.686,7.017,7.017,0,0,0-1.568-.495,17.229,17.229,0,0,0-2.223-.3q-1.265-.1-2.794-.091a21.41,21.41,0,0,0-2.341.122,12.074,12.074,0,0,0-1.7.309,6.209,6.209,0,0,0-1.222.452,8.651,8.651,0,0,0-.937.552Z" transform="translate(-677.774 -2443.803)" fill="#fcb048"/>
        </g>
        <path id="Path_39852" data-name="Path 39852" d="M573.867,2416.454c-18.878,0-38.535,1.661-41.679,4.877a3.8,3.8,0,0,1,.344.362c2.65-2.233,18.881-4.48,41.335-4.48,23.031,0,39.522,2.365,41.519,4.653a3.889,3.889,0,0,1,.317-.359C613.106,2418.177,593.08,2416.454,573.867,2416.454Z" transform="translate(-531.497 -2415.859)" fill="url(#linear-gradient-35)"/>
      </g>
      <g id="Group_47238" data-name="Group 47238" transform="translate(93.557 11.962)">
        <path id="Path_39853" data-name="Path 39853" d="M1394.183,2528.251l-7.653,5.443c-2.473,1.759,6.51,18.632,20.063,37.686s26.545,33.075,29.018,31.317l7.652-5.443Z" transform="translate(-1386.121 -2528.098)" fill="url(#linear-gradient-36)"/>
        <path id="Path_39854" data-name="Path 39854" d="M1509.877,2595.957c-2.473,1.759-15.465-12.262-29.018-31.316s-22.536-35.927-20.063-37.686,15.465,12.262,29.018,31.316S1512.349,2594.2,1509.877,2595.957Z" transform="translate(-1452.733 -2526.801)" fill="url(#linear-gradient-37)"/>
        <path id="Path_39855" data-name="Path 39855" d="M1478.763,2564.824c-12-16.875-22.943-35.668-19.834-37.879.17-.122.514-.274.635-.1s-.166.264-.336.386c-1.971,1.4,5.82,17.007,20.153,37.157s26.518,32.63,28.49,31.227c.171-.121.351-.206.473-.035s-.136.292-.306.413C1504.927,2598.2,1490.766,2581.7,1478.763,2564.824Z" transform="translate(-1450.946 -2526.765)" fill="url(#linear-gradient-38)"/>
        <g id="Group_47237" data-name="Group 47237" transform="translate(16.721 12.966)">
          <path id="Path_39856" data-name="Path 39856" d="M1561.7,2671.2q.712.258,1.465.591a8.382,8.382,0,0,1,1.672,1.043,17.371,17.371,0,0,1,2.067,1.954,35.38,35.38,0,0,1,2.607,3.276q1.432,1.993,2.544,3.846a31.357,31.357,0,0,1,1.788,3.379,11.74,11.74,0,0,1,.87,2.646,2.106,2.106,0,0,1-.214,1.644l2.724,3.913a4.714,4.714,0,0,1,.461.794c.11.249.129.394.061.442l-.319.229-3.5-5.028a3.092,3.092,0,0,1-2.028-.574,16.67,16.67,0,0,1-2.793-2.138l-1.041-2a2.6,2.6,0,0,1-.19-.469c-.037-.132-.031-.212.014-.245q.092-.066.51.272t.971.744a11.8,11.8,0,0,0,1.154.749,1.736,1.736,0,0,0,1.054.28l-8.268-11.871a13.683,13.683,0,0,1-1.412-.563,8.333,8.333,0,0,1-1.682-1.107,19.6,19.6,0,0,1-2.116-2.067,41.187,41.187,0,0,1-2.719-3.452q-1.161-1.615-2.127-3.25a26.593,26.593,0,0,1-1.561-3.023,10.5,10.5,0,0,1-.756-2.427,1.693,1.693,0,0,1,.273-1.485l-2.242-3.221a5.144,5.144,0,0,1-.471-.8c-.114-.251-.137-.4-.067-.455l.319-.229,3.069,4.4a2.882,2.882,0,0,1,1.731.569,16.787,16.787,0,0,1,2.246,1.744l.841,1.607c.254.489.338.762.254.822-.045.032-.165-.018-.363-.154s-.435-.3-.708-.485a7.379,7.379,0,0,0-.847-.495,1.893,1.893,0,0,0-.806-.229Zm-8.11-10.478a1.423,1.423,0,0,0-.129.966,5.677,5.677,0,0,0,.415,1.378,13.931,13.931,0,0,0,.849,1.65q.525.884,1.177,1.791a22.312,22.312,0,0,0,1.41,1.788,13.153,13.153,0,0,0,1.221,1.219,7.93,7.93,0,0,0,1.086.8,7.116,7.116,0,0,0,.992.494Zm18.54,25.458a1.477,1.477,0,0,0,.107-1.033,7.03,7.03,0,0,0-.506-1.564,17.329,17.329,0,0,0-1.045-1.984q-.654-1.087-1.546-2.329a21.5,21.5,0,0,0-1.456-1.837,12.048,12.048,0,0,0-1.238-1.207,6.193,6.193,0,0,0-1.076-.734,8.726,8.726,0,0,0-.993-.444Z" transform="translate(-1548.387 -2652.595)" fill="#fcb048"/>
        </g>
        <path id="Path_39857" data-name="Path 39857" d="M1495.584,2564.525c-10.942-15.384-23.689-30.438-28.132-31.136a3.778,3.778,0,0,1-.1.49c3.355.866,14.6,12.789,27.61,31.086,13.349,18.767,20.981,33.576,20.274,36.53a3.909,3.909,0,0,1,.476.05C1516.924,2597.5,1506.721,2580.182,1495.584,2564.525Z" transform="translate(-1458.985 -2532.706)" fill="url(#linear-gradient-39)"/>
      </g>
    </g>
  </g>
</svg>
