<svg xmlns="http://www.w3.org/2000/svg" width="33.161" height="22.786" viewBox="0 0 33.161 22.786">
  <g id="Group_49412" data-name="Group 49412" transform="translate(13037.306 -1169)">
    <g id="Group_49075" data-name="Group 49075" transform="translate(-13037.306 1169)">
      <path id="Path_40193" data-name="Path 40193" d="M-881.868-34.436a.773.773,0,0,1,.756-.385c1.112.013,2.224,0,3.335.012.277,0,.346-.08.335-.344-.021-.5-.014-.992,0-1.488.005-.2-.067-.258-.261-.253-.453.012-.907.008-1.36,0a.541.541,0,0,1-.6-.536.55.55,0,0,1,.592-.552c.453-.012.907-.014,1.36,0,.217.007.282-.069.269-.276-.015-.258-.011-.518,0-.776.007-.168-.056-.231-.224-.224a2.36,2.36,0,0,1-.484-.023.517.517,0,0,1-.441-.552.532.532,0,0,1,.494-.507c.2-.023.468.087.592-.051.154-.172.037-.453.059-.686,0-.021,0-.043,0-.065,0-.479,0-.479-.47-.486-.434-.006-.686-.216-.676-.565s.252-.53.674-.53H-866.2c.435,0,.691.211.684.555s-.254.534-.671.54a1.188,1.188,0,0,1-.194,0c-.229-.035-.3.06-.287.286a7.236,7.236,0,0,1,0,.776c-.006.167.055.236.224.224a2.852,2.852,0,0,1,.421,0,.527.527,0,0,1,.5.5.531.531,0,0,1-.433.561,1.133,1.133,0,0,1-.16.021c-.552.04-.552.04-.552.6,0,.667,0,.667.678.667.291,0,.583,0,.874,0,.417.007.662.211.664.547s-.239.542-.657.544-.864.012-1.3,0c-.221-.008-.274.072-.268.278.013.5.019.993,0,1.488-.011.263.078.319.326.318,2.418-.009,4.836-.005,7.254-.005.475,0,.95-.006,1.425,0,.167,0,.225-.048.224-.22q-.01-1.44,0-2.88c0-.179-.064-.241-.234-.268a4.892,4.892,0,0,1-3.545-2.454.594.594,0,0,0-.331-.28,5.334,5.334,0,0,1-3.52-5.364,5.34,5.34,0,0,1,2.231-4.189c.177-.128.164-.291.178-.454a6.3,6.3,0,0,1,1.12-3.127.547.547,0,0,1,.833-.169.552.552,0,0,1,.048.809,5.289,5.289,0,0,0-.841,2.047,4.331,4.331,0,0,0-.092.964.688.688,0,0,1-.373.66,4.464,4.464,0,0,0-.588,7.009,3.359,3.359,0,0,0,1.487.817,1.021,1.021,0,0,1,.714.581,3.926,3.926,0,0,0,2.557,2.029c.274.072.387.026.36-.289a6.325,6.325,0,0,1,0-1.067.909.909,0,0,0-.368-.828c-.779-.683-1.532-1.394-2.294-2.1a.521.521,0,0,1-.125-.7.522.522,0,0,1,.645-.236.879.879,0,0,1,.338.243l1.778,1.632c.008-.17.017-.283.017-.4q0-2.944,0-5.889c0-.1,0-.195,0-.291a.557.557,0,0,1,.561-.552.541.541,0,0,1,.528.579c.006,1.057,0,2.114,0,3.171,0,.116,0,.232,0,.425.206-.183.363-.319.517-.459.454-.415.9-.833,1.361-1.246a.559.559,0,0,1,.853-.026.57.57,0,0,1-.114.828q-1.212,1.121-2.434,2.231a.507.507,0,0,0-.186.416c.007,1.435.009,2.869,0,4.3,0,.252.071.28.3.217a3.95,3.95,0,0,0,2.479-2.032.865.865,0,0,1,.6-.483,3.951,3.951,0,0,0,3.091-3.356,4.287,4.287,0,0,0-2.122-4.645.7.7,0,0,1-.347-.641,5.037,5.037,0,0,0-2.135-4.123,4.162,4.162,0,0,0-4.471-.317,2.162,2.162,0,0,1-.321.151.533.533,0,0,1-.633-.32.524.524,0,0,1,.255-.688,5.121,5.121,0,0,1,2.427-.715,5.789,5.789,0,0,1,5.8,4.663,2.258,2.258,0,0,1,.105.6c-.026.424.214.631.516.874a5.3,5.3,0,0,1,2.016,5.254,5.007,5.007,0,0,1-3.331,4.148,1.527,1.527,0,0,0-.8.618,4.808,4.808,0,0,1-3.189,2.136c-.2.039-.236.118-.235.3.006.928.014,1.855,0,2.783-.005.267.086.316.329.315,2.17-.009,4.34-.005,6.509,0a1.166,1.166,0,0,1,.416.04.512.512,0,0,1,.369.546.517.517,0,0,1-.467.5,1.554,1.554,0,0,1-.259.007q-15.836,0-31.673.005a.713.713,0,0,1-.742-.4Zm9.8-.38c1.339,0,2.677,0,4.016,0,.213,0,.307-.04.3-.28-.018-.506-.013-1.014,0-1.52,0-.2-.036-.283-.263-.283q-4.048.011-8.1,0c-.208,0-.253.075-.249.264.01.507.018,1.014,0,1.52-.011.256.083.3.314.3C-874.719-34.821-873.391-34.816-872.063-34.816Zm.009-5.525h.648c1.122,0,2.245-.006,3.368,0,.228,0,.305-.067.289-.293a5.438,5.438,0,0,1,0-.744c.013-.2-.057-.26-.256-.256-.518.012-1.036,0-1.554,0-2.159,0-4.318,0-6.476-.006-.252,0-.349.061-.323.321a3.338,3.338,0,0,1,0,.646c-.024.254.062.33.321.327C-874.71-40.348-873.382-40.341-872.054-40.341Zm-.015,2.358c1.144,0,2.288.005,3.432,0,.286,0,.666.133.831-.067.14-.17.026-.536.057-.812.035-.313-.074-.4-.388-.394-2.612.013-5.223.007-7.835.007-.065,0-.13,0-.194,0-.136-.006-.193.055-.19.193a7.358,7.358,0,0,1,0,.776c-.021.247.068.308.308.306C-874.724-37.989-873.4-37.983-872.069-37.983Z" transform="translate(881.868 56.503)" fill="#394f9b"/>
    </g>
  </g>
</svg>
