<svg xmlns="http://www.w3.org/2000/svg" width="209.144" height="180.903" viewBox="0 0 209.144 180.903">
  <g id="Group_49405" data-name="Group 49405" transform="translate(-126 -77.326)">
    <g id="Group_47245" data-name="Group 47245" transform="matrix(-0.719, -0.695, 0.695, -0.719, 217.261, 317.091)" opacity="0.056">
      <ellipse id="Ellipse_4149" data-name="Ellipse 4149" cx="77.702" cy="76.726" rx="77.702" ry="76.726" transform="translate(229.727 107.698) rotate(135)" fill="#394f9b"/>
      <path id="Path_40731" data-name="Path 40731" d="M38.2-.241A37.627,37.627,0,0,1,76.167,37.721,38.792,38.792,0,0,1,37.722,76.167,37.627,37.627,0,0,1-.241,38.2,38.792,38.792,0,0,1,38.2-.241Z" transform="translate(-0.487 87.689)" fill="#394f9b" stroke="#fff" stroke-width="5"/>
    </g>
    <g id="Group_47310" data-name="Group 47310" transform="translate(242.189 89.827)" opacity="0.411">
      <g id="Group_47309" data-name="Group 47309" transform="translate(0)">
        <rect id="Rectangle_16187" data-name="Rectangle 16187" width="2.026" height="31.071" rx="1.013" transform="translate(40.884 0) rotate(45)" fill="#394f9b"/>
        <rect id="Rectangle_16188" data-name="Rectangle 16188" width="2.026" height="31.071" rx="1.013" transform="translate(21.971) rotate(45)" fill="#394f9b"/>
      </g>
    </g>
    <g id="Group_47311" data-name="Group 47311" transform="translate(126 178.125)" opacity="0.411">
      <rect id="Rectangle_16189" data-name="Rectangle 16189" width="2.026" height="31.071" rx="1.013" transform="translate(26.023 16.887) rotate(45)" fill="#394f9b"/>
      <rect id="Rectangle_16190" data-name="Rectangle 16190" width="2.026" height="31.071" rx="1.013" transform="translate(21.971 0) rotate(45)" fill="#394f9b"/>
    </g>
    <g id="Group_47316" data-name="Group 47316" transform="translate(265.502 185.132)">
      <g id="Group_47313" data-name="Group 47313">
        <path id="Path_27712" data-name="Path 27712" d="M415.7,56.566s-1.93,15.452-5.1,18.929c-3.808,4.171-6.571,3.561-8.109,5.712a0,0,0,0,0,0,0c-1.537-2.154-4.3-1.54-8.112-5.715-3.172-3.477-5.1-18.929-5.1-18.929a57.919,57.919,0,0,0,13.211-8.6l0,0A58.049,58.049,0,0,0,415.7,56.566Z" transform="translate(-389.276 -47.961)" fill="#e6e6e6"/>
        <path id="Path_27713" data-name="Path 27713" d="M402.49,47.964V81.206a0,0,0,0,0,0,0c-1.537-2.154-4.3-1.54-8.112-5.715-3.172-3.477-5.1-18.929-5.1-18.929a57.919,57.919,0,0,0,13.211-8.6Z" transform="translate(-389.276 -47.961)" opacity="0.1"/>
        <g id="Group_47312" data-name="Group 47312" transform="translate(2.05 2.58)">
          <path id="Path_27714" data-name="Path 27714" d="M396.255,64.013s1.63,13.053,4.309,15.991c3.22,3.529,5.555,3.01,6.854,4.828,1.3-1.817,3.635-1.3,6.854-4.828,2.679-2.938,4.306-15.991,4.306-15.991a48.972,48.972,0,0,1-11.161-7.27A49.056,49.056,0,0,1,396.255,64.013Z" transform="translate(-396.255 -56.743)" fill="#394f9b"/>
          <path id="Path_27715" data-name="Path 27715" d="M445.408,64.023s-1.63,13.051-4.31,15.991c-3.216,3.526-5.55,3.011-6.85,4.823V56.756A49.126,49.126,0,0,0,445.408,64.023Z" transform="translate(-423.087 -56.752)" fill="#fff" opacity="0.2"/>
        </g>
      </g>
    </g>
    <g id="Group_47318" data-name="Group 47318" transform="translate(163.333 115.001)">
      <g id="Group_47305" data-name="Group 47305" transform="translate(14.215 14.238)">
        <path id="Path_27706" data-name="Path 27706" d="M-2811.451,1034.411q5.852,0,11.705,0c1.513,0,2.042.5,2.181,2.015a18.423,18.423,0,0,0,.417,2.78,10.22,10.22,0,0,0,9.535,8.246c2.968.253,3.094.88,3.013,3.427a55.6,55.6,0,0,1-2.949,16.473,1.707,1.707,0,0,0,.176,1.627c2.659,4.319,5.288,8.657,7.923,12.992,1.112,1.831.792,3.225-1,4.412-2.544,1.68-5.046,3.432-7.65,5.016a7.151,7.151,0,0,1-7.752.148,16.067,16.067,0,0,1-3.724-3.2c-.118-.13-.227-.27-.35-.4-.93-.945-1.457-1-2.529-.278a40.768,40.768,0,0,1-7.78,4.064,3.06,3.06,0,0,1-2.383-.018c-11.129-4.381-18.387-12.452-22.441-23.558a54.024,54.024,0,0,1-3.192-17.752c-.031-1.831.444-2.369,2.251-2.524a13.209,13.209,0,0,0,4.424-1.061c3.627-1.657,5.337-4.682,5.979-8.45a19.412,19.412,0,0,0,.2-2.011,1.806,1.806,0,0,1,2.075-1.951Q-2817.392,1034.4-2811.451,1034.411Zm22.568,31.707c.084-.247.18-.513.264-.784a55.36,55.36,0,0,0,2.388-15.066c.017-.769-.136-1.038-.971-1.106-4.229-.343-7.757-1.979-10.016-5.767a14.157,14.157,0,0,1-1.933-6.426c-.051-.784-.294-.958-1.042-.955-7.333.027-14.666.016-22,.016-1.514,0-1.514,0-1.644,1.515-.6,6.989-5,11.393-11.992,11.977-.589.049-.785.194-.775.824a51.835,51.835,0,0,0,3.8,19.036c4,9.744,10.74,16.8,20.619,20.715a1.4,1.4,0,0,0,1.088.182,36.4,36.4,0,0,0,8.027-4.226c-1.435-.821-2.773-1.592-4.117-2.355a5.186,5.186,0,0,1-2.059-1.867,2.741,2.741,0,0,1,0-2.85,2.476,2.476,0,0,1,2.351-1.257,11.529,11.529,0,0,1,3.03.713c-1.082-1.775-2.074-3.4-3.066-5.025a3.5,3.5,0,0,0-.2,1.357,1.828,1.828,0,0,1-1.948,2.008c-1.583.032-3.169.036-4.752,0a1.789,1.789,0,0,1-1.884-1.891q-.042-2.42,0-4.84a1.763,1.763,0,0,1,1.816-1.859c.818-.043,1.642,0,2.463-.023.366-.011.931.18,1.045-.139.1-.28-.264-.72-.406-1.1-.125-.333-.4-.289-.66-.29-.822,0-1.643.018-2.464-.008a1.759,1.759,0,0,1-1.864-1.807q-.055-2.507,0-5.015a1.725,1.725,0,0,1,1.8-1.769q2.462-.049,4.928,0a1.775,1.775,0,0,1,1.834,1.843,10.407,10.407,0,0,1-.006,1.758c-.108.874.351,1.255,1.147,1.555,0-1.1-.012-2.126,0-3.147a1.819,1.819,0,0,1,2.019-2.016c1.5-.015,2.993-.012,4.488,0a1.866,1.866,0,0,1,2.1,2.05q.031,2.244,0,4.488a1.868,1.868,0,0,1-2.079,2.066q-1.848.021-3.7,0c-.506-.007-.655.118-.351.586.4.615.791,1.235,1.146,1.875.223.4.4.382.716.092a3.772,3.772,0,0,1,3.124-1.114c.374.05.512-.2.707-.414a3.853,3.853,0,0,1,3.021-1.383,1.276,1.276,0,0,0,1.152-.559,2.653,2.653,0,0,1,4.418.079C-2789.208,1065.915-2789.176,1066.135-2788.884,1066.118Zm-3.185,24.779a5.717,5.717,0,0,0,2.783-.691q4.088-2.666,8.15-5.371a1.129,1.129,0,0,0,.39-1.8q-4.858-8.005-9.738-16c-.352-.576-.772-1.087-1.562-.622a1.243,1.243,0,0,0-.435,1.884c.26.458.579.882.855,1.331a.8.8,0,0,1-.169,1.171.792.792,0,0,1-1.163-.19,9.257,9.257,0,0,1-1.158-1.756c-.652-1.159-1.134-1.24-2.2-.432-.63.479-.872.988-.272,1.686a12.325,12.325,0,0,1,.771,1.176c.329.486.5,1.007-.069,1.382-.614.4-1.025.008-1.356-.518-.438-.694-.919-1.361-1.344-2.062a.7.7,0,0,0-.958-.328,3.871,3.871,0,0,0-1.056.617.857.857,0,0,0-.2,1.393,21.72,21.72,0,0,1,1.256,2.012.747.747,0,0,1-.2,1.024.75.75,0,0,1-1.041-.026,2.366,2.366,0,0,1-.419-.559q-2.7-4.38-5.391-8.761a5.9,5.9,0,0,0-.809-1.033,1.037,1.037,0,0,0-1.35-.262,1.254,1.254,0,0,0-.7,1.3,4.1,4.1,0,0,0,.708,1.778c2.857,4.608,5.592,9.293,8.576,13.822.313.475.532.995-.03,1.4-.607.434-.946-.027-1.372-.46a8.8,8.8,0,0,0-5.318-2.626,1,1,0,0,0-.934,1.577,3.632,3.632,0,0,0,1.5,1.321c2.112,1.207,4.22,2.421,6.34,3.613a5.945,5.945,0,0,1,1.629,1.307,14.816,14.816,0,0,0,3.368,2.939A4.755,4.755,0,0,0-2792.069,1090.9Zm-7.079-28.532c0-.674-.019-1.348.007-2.021.018-.47-.123-.7-.637-.694q-2.021.031-4.042,0c-.52-.007-.643.242-.638.7q.025,1.977,0,3.954c-.007.472.14.7.649.694,1.347-.019,2.7-.015,4.043,0,.44,0,.642-.151.625-.615C-2799.166,1063.714-2799.148,1063.039-2799.147,1062.365Zm-12.374,12.757c.7,0,1.406-.016,2.107.006.429.013.658-.109.652-.583-.016-1.288.011-2.577-.016-3.864-.011-.46-.171-.868-.767-.865-1.316.007-2.635.011-3.951,0-.419,0-.574.168-.571.573.01,1.376.012,2.752,0,4.128,0,.449.162.632.617.615C-2812.811,1075.1-2812.166,1075.121-2811.521,1075.123Zm-2.647-13.013v.576c0,2.434,0,2.422,2.429,2.323.419-.017.64-.134.735-.552a2.065,2.065,0,0,1,1.187-1.55c.971-.355,1.036-1.025.96-1.85a4.624,4.624,0,0,1,0-.789c.036-.46-.175-.625-.617-.615-.7.016-1.4-.025-2.1.01-.836.042-1.909-.373-2.443.2C-2814.509,1060.388-2814.111,1061.434-2814.168,1062.11Z" transform="translate(2838.259 -1034.41)" fill="#394f9b"/>
        <path id="Path_27707" data-name="Path 27707" d="M-2626.3,1160.11c0,.79.013,1.581,0,2.371a1.736,1.736,0,0,1-1.748,1.906q-2.544.083-5.09,0a1.719,1.719,0,0,1-1.743-1.825q-.044-2.457,0-4.916a1.765,1.765,0,0,1,1.836-1.838q2.457-.063,4.916,0a1.784,1.784,0,0,1,1.829,1.932C-2626.283,1158.53-2626.3,1159.32-2626.3,1160.11Zm-4.488,2.657c.815,0,1.489-.029,2.161.009.555.031.708-.208.7-.721q-.032-1.975,0-3.951c.007-.493-.178-.667-.671-.658-1.316.025-2.634.03-3.951,0-.551-.013-.717.2-.694.719.029.672-.012,1.347.011,2.019.027.815-.343,1.858.146,2.386C-2632.546,1163.152-2631.474,1162.661-2630.784,1162.767Z" transform="translate(2657.425 -1142.334)" fill="#394f9b"/>
        <path id="Path_27708" data-name="Path 27708" d="M-2713.527,1160.1c0,.82.022,1.639,0,2.458a1.735,1.735,0,0,1-1.805,1.852q-2.5.071-5,0a1.738,1.738,0,0,1-1.777-1.8c-.048-1.667-.051-3.336,0-5a1.756,1.756,0,0,1,1.817-1.774c1.667-.043,3.336-.047,5,0a1.743,1.743,0,0,1,1.761,1.814C-2713.5,1158.457-2713.528,1159.277-2713.527,1160.1Zm-4.26-2.631c-.674,0-1.348.013-2.021,0-.416-.011-.659.08-.652.574.021,1.407.013,2.813,0,4.22,0,.369.148.527.522.525,1.407-.009,2.813-.01,4.22,0,.416,0,.573-.171.57-.576-.01-1.377-.015-2.755,0-4.132.006-.459-.177-.626-.625-.612C-2716.439,1157.482-2717.113,1157.466-2717.787,1157.465Z" transform="translate(2735.012 -1142.344)" fill="#394f9b"/>
        <path id="Path_27709" data-name="Path 27709" d="M-2538.612,1160.174c0,.819.022,1.639-.007,2.458a1.649,1.649,0,0,1-1.621,1.74c-1.752.066-3.51.067-5.263.008a1.706,1.706,0,0,1-1.687-1.791q-.057-2.457,0-4.915a1.773,1.773,0,0,1,1.818-1.862c1.637-.046,3.277-.043,4.915,0a1.77,1.77,0,0,1,1.844,1.909C-2538.6,1158.535-2538.611,1159.355-2538.612,1160.174Zm-1.62-.04c0-.7-.01-1.407,0-2.11.009-.41-.156-.576-.571-.573-1.406.013-2.814.011-4.22,0-.376,0-.524.155-.522.524.007,1.407.01,2.814,0,4.221,0,.409.152.578.568.574,1.377-.013,2.755-.015,4.132,0,.454.006.634-.162.617-.617C-2540.249,1161.484-2540.232,1160.809-2540.232,1160.135Z" transform="translate(2579.453 -1142.335)" fill="#394f9b"/>
        <path id="Path_27710" data-name="Path 27710" d="M-2713.525,1343.424c0,.792.02,1.585-.005,2.376a1.76,1.76,0,0,1-1.8,1.879q-2.506.077-5.014,0a1.757,1.757,0,0,1-1.776-1.822c-.045-1.641-.048-3.286,0-4.927a1.764,1.764,0,0,1,1.854-1.831c1.642-.039,3.286-.041,4.927,0a1.737,1.737,0,0,1,1.8,1.859C-2713.5,1341.781-2713.527,1342.6-2713.525,1343.424Zm-6.927-.063c0,.7.013,1.406-.006,2.108-.009.408.147.577.564.573,1.405-.014,2.811-.01,4.216,0,.366,0,.534-.149.532-.52-.005-1.405-.009-2.811,0-4.216,0-.409-.161-.577-.572-.573-1.376.011-2.753.016-4.129,0-.453-.006-.631.161-.615.615C-2720.435,1342.014-2720.452,1342.688-2720.452,1343.361Z" transform="translate(2735.012 -1305.325)" fill="#394f9b"/>
        <path id="Path_27711" data-name="Path 27711" d="M-2722.48,1251.76c0-.819-.02-1.639.006-2.457a1.744,1.744,0,0,1,1.769-1.8q2.5-.055,5,0a1.764,1.764,0,0,1,1.8,1.866q.045,2.414,0,4.828a1.785,1.785,0,0,1-1.872,1.893q-2.413.046-4.828,0a1.785,1.785,0,0,1-1.879-1.962C-2722.49,1253.34-2722.48,1252.55-2722.48,1251.76Zm6.928.068c0-.673-.019-1.348.006-2.02.018-.476-.141-.7-.647-.689-1.347.019-2.694.016-4.041,0-.446,0-.632.165-.627.62q.023,2.065,0,4.129c0,.474.223.6.648.6q2.02-.017,4.041,0c.44,0,.64-.161.625-.62C-2715.569,1253.175-2715.552,1252.5-2715.552,1251.828Z" transform="translate(2735.309 -1223.877)" fill="#394f9b"/>
      </g>
      <g id="Group_47317" data-name="Group 47317" transform="translate(0 0)">
        <path id="Path_27729" data-name="Path 27729" d="M422.906,87.407a.314.314,0,0,0,0,.628A.314.314,0,0,0,422.906,87.407Z" transform="translate(-386.337 -62.877)" fill="#d9d9d9"/>
        <g id="Group_47317-2" data-name="Group 47317" transform="translate(0 0)">
          <path id="Path_27717" data-name="Path 27717" d="M470.88,152.726l-1.936.358-.433,2.041-.433-2.041-1.936-.359,1.928-.471.441-1.928.441,1.928Z" transform="translate(-396.045 -76.906)" fill="#d9d9d9"/>
          <path id="Path_27718" data-name="Path 27718" d="M397.071,132.752l-1.936.358-.433,2.041-.433-2.041-1.936-.359,1.928-.471.441-1.928.441,1.928Z" transform="translate(-379.588 -72.453)" fill="#d9d9d9"/>
          <path id="Path_27719" data-name="Path 27719" d="M408.443,63.508l-1.936.358-.433,2.041-.433-2.041-1.936-.359,1.928-.471.441-1.928.441,1.928Z" transform="translate(-382.123 -57.012)" fill="#d9d9d9"/>
          <path id="Path_27720" data-name="Path 27720" d="M467.022,141.215l-1.082.2-.242,1.141-.242-1.141-1.082-.2,1.078-.263.246-1.077.247,1.077Z" transform="translate(-389.764 -81.64)" fill="#d9d9d9"/>
          <path id="Path_27721" data-name="Path 27721" d="M476.653,111.99l-1.082.2-.242,1.141-.242-1.141-1.082-.2,1.077-.263.247-1.077.246,1.077Z" transform="translate(-397.799 -68.059)" fill="#d9d9d9"/>
          <path id="Path_27722" data-name="Path 27722" d="M464.831,60.723l-1.082.2-.242,1.141-.242-1.141-1.082-.2,1.078-.263.246-1.077.246,1.077Z" transform="translate(-395.162 -56.627)" fill="#d9d9d9"/>
          <path id="Path_27723" data-name="Path 27723" d="M429.258,167.074l-1.082.2-.242,1.141-.242-1.141-1.082-.2,1.078-.263.246-1.078.247,1.078Z" transform="translate(-387.23 -80.341)" fill="#d9d9d9"/>
          <path id="Path_27724" data-name="Path 27724" d="M389.929,136.475l-1.082.2-.242,1.141-.242-1.141-1.082-.2,1.078-.263.246-1.078.246,1.078Z" transform="translate(-378.461 -73.518)" fill="#d9d9d9"/>
          <path id="Path_27725" data-name="Path 27725" d="M392.1,95.776l-1.082.2-.242,1.141-.242-1.141-1.082-.2,1.078-.263.246-1.077.247,1.077Z" transform="translate(-378.944 -64.444)" fill="#d9d9d9"/>
          <path id="Path_27726" data-name="Path 27726" d="M451.188,148.188a.314.314,0,0,0,0,.627A.314.314,0,0,0,451.188,148.188Z" transform="translate(-392.643 -72.897)" fill="#d9d9d9"/>
          <path id="Path_27727" data-name="Path 27727" d="M386.993,75.012a.314.314,0,0,0,0,.628A.314.314,0,0,0,386.993,75.012Z" transform="translate(-378.329 -60.113)" fill="#d9d9d9"/>
          <path id="Path_27728" data-name="Path 27728" d="M463.8,150.463a.314.314,0,0,0,0,.627A.314.314,0,0,0,463.8,150.463Z" transform="translate(-395.456 -76.937)" fill="#d9d9d9"/>
          <path id="Path_27730" data-name="Path 27730" d="M385.534,103.668a.314.314,0,0,0,0,.627A.314.314,0,0,0,385.534,103.668Z" transform="translate(-378.004 -66.502)" fill="#d9d9d9"/>
          <path id="Path_27731" data-name="Path 27731" d="M376.144,99.266a.222.222,0,0,0,0,.444A.222.222,0,0,0,376.144,99.266Z" transform="translate(-375.929 -65.521)" fill="#d9d9d9"/>
          <path id="Path_27732" data-name="Path 27732" d="M453.182,55.837a.222.222,0,0,0,0,.444A.222.222,0,0,0,453.182,55.837Z" transform="translate(-393.108 -55.837)" fill="#d9d9d9"/>
          <path id="Path_27733" data-name="Path 27733" d="M413.318,153.61a.222.222,0,0,0,0,.444A.222.222,0,0,0,413.318,153.61Z" transform="translate(-384.219 -77.639)" fill="#d9d9d9"/>
          <path id="Path_27734" data-name="Path 27734" d="M404.286,148.36a.6.6,0,0,0,0,1.2A.6.6,0,0,0,404.286,148.36Z" transform="translate(-382.123 -76.468)" fill="#d9d9d9"/>
        </g>
      </g>
    </g>
  </g>
</svg>
