<svg xmlns="http://www.w3.org/2000/svg" width="18.598" height="19.573" viewBox="0 0 18.598 19.573">
  <g id="Group_49409" data-name="Group 49409" transform="translate(12199.395 -2894.285)">
    <path id="Path_40025" data-name="Path 40025" d="M-1794.878-2993.225c0,1.356-.04,2.715.014,4.069a1.7,1.7,0,0,1-1.077,1.728,11.886,11.886,0,0,1-4.862,1.022,15.464,15.464,0,0,1-5.867-.706c-1.551-.539-1.81-.934-1.81-2.568,0-2.556.028-5.113-.015-7.669a1.792,1.792,0,0,1,1.12-1.788,10.268,10.268,0,0,1,3.852-.938,17.815,17.815,0,0,1,6.136.422,10.657,10.657,0,0,1,1.25.443,1.839,1.839,0,0,1,1.278,1.995C-1794.935-2995.889-1794.878-2994.555-1794.878-2993.225Zm-6.811-6.385a15.092,15.092,0,0,0-4.911.76c-.52.2-1.238.366-1.245,1.022s.7.856,1.232,1.025a15.951,15.951,0,0,0,9.895-.007c.523-.166,1.228-.352,1.207-1.04-.019-.623-.694-.789-1.189-.982A15.067,15.067,0,0,0-1801.688-2999.609Zm-6.163,9.036c-.18,2.334.027,2.637,2.253,3.184a17.163,17.163,0,0,0,5.828.337,9.972,9.972,0,0,0,3.476-.842c.369-.181.8-.36.818-.857.028-.612.007-1.225.007-1.826A16.838,16.838,0,0,1-1807.851-2990.573Zm-.042-6.146v1.006c0,1.353.142,1.554,1.443,2.017.2.07.4.128.6.182a17.648,17.648,0,0,0,6.286.382,8.959,8.959,0,0,0,3.313-.844c.368-.188.772-.379.784-.882.014-.59,0-1.18,0-1.793C-1800.516-2995.073-1804.153-2995.085-1807.893-2996.719Zm0,3.056a13.652,13.652,0,0,1-.009,1.4,1.127,1.127,0,0,0,.764,1.294,15.049,15.049,0,0,0,10.9.012.983.983,0,0,0,.773-.886c.008-.592,0-1.185,0-1.8C-1800.1-2992.032-1803.741-2992.035-1807.893-2993.663Z" transform="translate(-10390.898 5900.238)" fill="#aeb3bd"/>
    <path id="Path_40026" data-name="Path 40026" d="M-1763.786-3024.684a9.535,9.535,0,0,1-3.421,1.084c-.239.032-.528.1-.57-.21-.044-.328.28-.3.5-.341a11.473,11.473,0,0,0,2.268-.581c1.088-.443,1.221-.634,1.221-1.788,0-.361,0-.722,0-1.177a9.943,9.943,0,0,1-2.929.994c-.18.03-.36.062-.542.079-.2.019-.469.073-.519-.2s.219-.309.417-.351c.484-.1.977-.171,1.455-.3a10.605,10.605,0,0,0,1.178-.415,1.3,1.3,0,0,0,.949-1.5,10.794,10.794,0,0,1-.01-1.335,9.8,9.8,0,0,1-3.154,1.017c-.29.037-.726.272-.814-.133-.1-.457.4-.35.676-.4a11.837,11.837,0,0,0,2.256-.623,1.389,1.389,0,0,0,1.046-1.6,9.513,9.513,0,0,1-.01-1.284,10.182,10.182,0,0,1-3.589,1.085,15.649,15.649,0,0,1-8.443-.907c-.43-.2-.425.017-.429.317,0,.339-.009.678-.033,1.015a.244.244,0,0,1-.251.247.251.251,0,0,1-.249-.253,12.906,12.906,0,0,1,.073-2.959c.122-.531.659-.783,1.136-1.008a9.872,9.872,0,0,1,3.324-.826,17.3,17.3,0,0,1,7.124.56c1.635.539,1.918.959,1.918,2.654,0,3.548-.018,7.1.012,10.645a1.775,1.775,0,0,1-1.046,1.755,9.71,9.71,0,0,1-3.067.88c-.215.033-.517.116-.544-.242-.022-.288.251-.3.447-.325a10.655,10.655,0,0,0,2.13-.489c1.347-.475,1.486-.669,1.485-2.072C-1763.786-3023.978-1763.786-3024.28-1763.786-3024.684Zm-6.121-8.363a14.306,14.306,0,0,0,4.9-.784c.5-.195,1.17-.373,1.176-.995s-.667-.837-1.167-1a15.972,15.972,0,0,0-10.048.011c-.495.161-1.161.363-1.136,1.017.022.589.656.763,1.129.949A14.549,14.549,0,0,0-1769.907-3033.046Z" transform="translate(-10417.605 5931.451)" fill="#aeb3bd"/>
  </g>
</svg>
