<svg xmlns="http://www.w3.org/2000/svg" width="296.993" height="187.39" viewBox="0 0 296.993 187.39">
  <g id="Group_20512" data-name="Group 20512" transform="translate(-42.631 -119.349)">
    <g id="Group_18864" data-name="Group 18864" transform="translate(43 119.718)">
      <g id="Group_18859" data-name="Group 18859" transform="translate(0.622 3.217)">
        <g id="Group_18829" data-name="Group 18829" transform="translate(55.938 41.82)">
          <g id="Group_18817" data-name="Group 18817">
            <path id="Path_18685" data-name="Path 18685" d="M320.3,218.172H167.068a15.955,15.955,0,0,0-15.954,15.955V311.9a15.955,15.955,0,0,0,15.954,15.955h81.723a4,4,0,0,1,1.514.3l47.934,19.662a6.98,6.98,0,0,0,9.63-6.458v-9.513a3.988,3.988,0,0,1,3.989-3.988h8.44A15.955,15.955,0,0,0,336.252,311.9V234.127A15.955,15.955,0,0,0,320.3,218.172Z" transform="translate(-151.114 -218.172)" fill="#080c2f"/>
            <path id="Path_18686" data-name="Path 18686" d="M245.28,310.066c-11.577-8.853-21.84-19.445-28.4-31.928s-9.221-26.986-5.649-40.464a45.911,45.911,0,0,1,10.887-19.5H167.068a15.955,15.955,0,0,0-15.954,15.955V311.9a15.955,15.955,0,0,0,15.954,15.955h81.723a4,4,0,0,1,1.514.3l47.934,19.662a6.98,6.98,0,0,0,9.63-6.458v-2.627A159.5,159.5,0,0,1,245.28,310.066Z" transform="translate(-151.114 -218.172)" fill="#080c2f"/>
          </g>
          <g id="Group_18828" data-name="Group 18828" transform="translate(17.602 17.603)">
            <g id="Group_18821" data-name="Group 18821" transform="translate(0 35.872)">
              <g id="Group_18818" data-name="Group 18818">
                <path id="Path_18687" data-name="Path 18687" d="M316.817,279.414H172.178a2.647,2.647,0,0,1-2.648-2.648h0a2.647,2.647,0,0,1,2.648-2.647H316.817a2.647,2.647,0,0,1,2.647,2.647h0A2.647,2.647,0,0,1,316.817,279.414Z" transform="translate(-169.53 -274.12)" fill="rgba(255,255,255,0.61)"/>
                <path id="Path_18688" data-name="Path 18688" d="M172.178,274.12a2.647,2.647,0,0,0-2.648,2.647h0a2.647,2.647,0,0,0,2.648,2.648h44.9q-1.3-2.6-2.366-5.294Z" transform="translate(-169.53 -274.12)" fill="rgba(255,255,255,0.51)"/>
              </g>
              <g id="Group_18819" data-name="Group 18819" transform="translate(0 16.658)">
                <path id="Path_18689" data-name="Path 18689" d="M316.817,296.842H172.178a2.647,2.647,0,0,1-2.648-2.647h0a2.647,2.647,0,0,1,2.648-2.648H316.817a2.647,2.647,0,0,1,2.647,2.648h0A2.647,2.647,0,0,1,316.817,296.842Z" transform="translate(-169.53 -291.548)" fill="rgba(255,255,255,0.61)"/>
                <path id="Path_18690" data-name="Path 18690" d="M172.178,291.548a2.647,2.647,0,1,0,0,5.294h56.184q-2.227-2.576-4.237-5.294Z" transform="translate(-169.53 -291.548)" fill="rgba(255,255,255,0.51)"/>
              </g>
              <g id="Group_18820" data-name="Group 18820" transform="translate(0 33.316)">
                <path id="Path_18691" data-name="Path 18691" d="M316.817,314.27H172.178a2.647,2.647,0,0,1-2.648-2.647h0a2.647,2.647,0,0,1,2.648-2.647H316.817a2.646,2.646,0,0,1,2.647,2.647h0A2.647,2.647,0,0,1,316.817,314.27Z" transform="translate(-169.53 -308.977)" fill="rgba(255,255,255,0.61)"/>
                <path id="Path_18692" data-name="Path 18692" d="M169.53,311.624a2.647,2.647,0,0,0,2.648,2.647h74.169l-.253-.19q-3.219-2.462-6.286-5.1h-67.63A2.647,2.647,0,0,0,169.53,311.624Z" transform="translate(-169.53 -308.977)" fill="rgba(255,255,255,0.51)"/>
              </g>
            </g>
            <g id="Group_18827" data-name="Group 18827" transform="translate(0)">
              <g id="Group_18822" data-name="Group 18822">
                <path id="Path_18693" data-name="Path 18693" d="M179.844,254.39l-5.108,2.686a1,1,0,0,1-1.457-1.059l.976-5.687a1.006,1.006,0,0,0-.289-.888l-4.132-4.028a1,1,0,0,1,.556-1.713l5.71-.83a1,1,0,0,0,.756-.549l2.554-5.175a1,1,0,0,1,1.8,0l2.554,5.175a1,1,0,0,0,.756.549l5.71.83a1,1,0,0,1,.556,1.713l-4.132,4.028a1,1,0,0,0-.289.888l.976,5.687a1,1,0,0,1-1.457,1.059l-5.108-2.686A1,1,0,0,0,179.844,254.39Z" transform="translate(-169.53 -236.589)" fill="#efc04d"/>
                <path id="Path_18694" data-name="Path 18694" d="M180.778,254.39l5.108,2.686a1,1,0,0,0,1.457-1.059l-.034-.2a16.044,16.044,0,0,1-4.2-2.232c-2.773-2.089-4.66-5.353-4.385-8.664a7.84,7.84,0,0,1,3.493-5.744l-1-2.03a1,1,0,0,0-1.8,0l-2.554,5.175a1,1,0,0,1-.756.549l-5.71.83a1,1,0,0,0-.556,1.713l4.132,4.028a1.006,1.006,0,0,1,.289.888l-.976,5.687a1,1,0,0,0,1.457,1.059l5.108-2.686A1,1,0,0,1,180.778,254.39Z" transform="translate(-169.53 -236.589)" fill="#e0a327"/>
              </g>
              <g id="Group_18823" data-name="Group 18823" transform="translate(32.093)">
                <path id="Path_18695" data-name="Path 18695" d="M213.421,254.39l-5.108,2.686a1,1,0,0,1-1.456-1.059l.975-5.687a1,1,0,0,0-.289-.888l-4.132-4.028a1,1,0,0,1,.556-1.713l5.711-.83a1,1,0,0,0,.755-.549l2.554-5.175a1,1,0,0,1,1.8,0l2.554,5.175a1,1,0,0,0,.756.549l5.711.83a1,1,0,0,1,.555,1.713l-4.132,4.028a1,1,0,0,0-.289.888l.976,5.687a1,1,0,0,1-1.457,1.059l-5.107-2.686A1,1,0,0,0,213.421,254.39Z" transform="translate(-203.108 -236.589)" fill="#efc04d"/>
                <path id="Path_18696" data-name="Path 18696" d="M214.356,254.39l5.107,2.686a1,1,0,0,0,1.457-1.059l-.034-.2a16.044,16.044,0,0,1-4.2-2.232c-2.773-2.089-4.659-5.353-4.385-8.664a7.838,7.838,0,0,1,3.494-5.744l-1-2.03a1,1,0,0,0-1.8,0l-2.554,5.175a1,1,0,0,1-.755.549l-5.711.83a1,1,0,0,0-.556,1.713l4.132,4.028a1,1,0,0,1,.289.888l-.975,5.687a1,1,0,0,0,1.456,1.059l5.108-2.686A1,1,0,0,1,214.356,254.39Z" transform="translate(-203.108 -236.589)" fill="#e0a327"/>
              </g>
              <g id="Group_18824" data-name="Group 18824" transform="translate(64.186)">
                <path id="Path_18697" data-name="Path 18697" d="M247,254.39l-5.107,2.686a1,1,0,0,1-1.457-1.059l.976-5.687a1.006,1.006,0,0,0-.289-.888l-4.133-4.028a1,1,0,0,1,.556-1.713l5.711-.83a1,1,0,0,0,.756-.549l2.553-5.175a1,1,0,0,1,1.8,0l2.554,5.175a1,1,0,0,0,.755.549l5.711.83a1,1,0,0,1,.556,1.713l-4.132,4.028a1,1,0,0,0-.289.888l.975,5.687a1,1,0,0,1-1.456,1.059l-5.108-2.686A1,1,0,0,0,247,254.39Z" transform="translate(-236.685 -236.589)" fill="#efc04d"/>
                <path id="Path_18698" data-name="Path 18698" d="M247.933,254.39l5.108,2.686a1,1,0,0,0,1.456-1.059l-.033-.2a16.065,16.065,0,0,1-4.2-2.232c-2.772-2.089-4.659-5.353-4.385-8.664a7.844,7.844,0,0,1,3.494-5.744l-1-2.03a1,1,0,0,0-1.8,0l-2.553,5.175a1,1,0,0,1-.756.549l-5.711.83a1,1,0,0,0-.556,1.713l4.133,4.028a1.006,1.006,0,0,1,.289.888l-.976,5.687a1,1,0,0,0,1.457,1.059L247,254.39A1,1,0,0,1,247.933,254.39Z" transform="translate(-236.685 -236.589)" fill="#e0a327"/>
              </g>
              <g id="Group_18825" data-name="Group 18825" transform="translate(96.279)">
                <path id="Path_18699" data-name="Path 18699" d="M280.576,254.39l-5.108,2.686a1,1,0,0,1-1.457-1.059l.976-5.687a1.006,1.006,0,0,0-.289-.888l-4.132-4.028a1,1,0,0,1,.556-1.713l5.71-.83a1,1,0,0,0,.756-.549l2.554-5.175a1,1,0,0,1,1.8,0l2.554,5.175a1,1,0,0,0,.756.549l5.71.83a1,1,0,0,1,.556,1.713l-4.132,4.028a1.006,1.006,0,0,0-.289.888l.976,5.687a1,1,0,0,1-1.457,1.059l-5.108-2.686A1,1,0,0,0,280.576,254.39Z" transform="translate(-270.263 -236.589)" fill="#efc04d"/>
                <path id="Path_18700" data-name="Path 18700" d="M281.51,254.39l5.108,2.686a1,1,0,0,0,1.457-1.059l-.034-.2a16.045,16.045,0,0,1-4.2-2.232c-2.773-2.089-4.66-5.353-4.385-8.664a7.839,7.839,0,0,1,3.493-5.744l-1-2.03a1,1,0,0,0-1.8,0l-2.554,5.175a1,1,0,0,1-.756.549l-5.71.83a1,1,0,0,0-.556,1.713l4.132,4.028a1.006,1.006,0,0,1,.289.888l-.976,5.687a1,1,0,0,0,1.457,1.059l5.108-2.686A1,1,0,0,1,281.51,254.39Z" transform="translate(-270.263 -236.589)" fill="#e0a327"/>
              </g>
              <g id="Group_18826" data-name="Group 18826" transform="translate(128.372)">
                <path id="Path_18701" data-name="Path 18701" d="M314.153,254.39l-5.107,2.686a1,1,0,0,1-1.457-1.059l.975-5.687a1,1,0,0,0-.289-.888l-4.132-4.028a1,1,0,0,1,.556-1.713l5.711-.83a1,1,0,0,0,.755-.549l2.554-5.175a1,1,0,0,1,1.8,0l2.554,5.175a1,1,0,0,0,.755.549l5.711.83a1,1,0,0,1,.556,1.713l-4.132,4.028a1,1,0,0,0-.29.888l.976,5.687a1,1,0,0,1-1.457,1.059l-5.107-2.686A1,1,0,0,0,314.153,254.39Z" transform="translate(-303.84 -236.589)" fill="#efc04d"/>
                <path id="Path_18702" data-name="Path 18702" d="M315.088,254.39l5.107,2.686a1,1,0,0,0,1.457-1.059l-.033-.2a16.05,16.05,0,0,1-4.2-2.232c-2.773-2.089-4.659-5.353-4.385-8.664a7.843,7.843,0,0,1,3.494-5.744l-1-2.03a1,1,0,0,0-1.8,0l-2.554,5.175a1,1,0,0,1-.755.549l-5.711.83a1,1,0,0,0-.556,1.713l4.132,4.028a1,1,0,0,1,.289.888l-.975,5.687a1,1,0,0,0,1.457,1.059l5.107-2.686A1,1,0,0,1,315.088,254.39Z" transform="translate(-303.84 -236.589)" fill="#e0a327"/>
              </g>
            </g>
          </g>
        </g>
        <g id="Group_18858" data-name="Group 18858" transform="translate(0 0)">
          <g id="Group_18832" data-name="Group 18832" transform="translate(26.031 39.417)">
            <g id="Group_18830" data-name="Group 18830" transform="translate(0 75.333)">
              <path id="Path_18703" data-name="Path 18703" d="M136.35,323l-8.184,4.3a1.608,1.608,0,0,1-2.333-1.7l1.563-9.113a1.608,1.608,0,0,0-.463-1.423l-6.621-6.454a1.608,1.608,0,0,1,.891-2.743l9.15-1.329a1.606,1.606,0,0,0,1.211-.879l4.093-8.292a1.608,1.608,0,0,1,2.885,0l4.092,8.292a1.608,1.608,0,0,0,1.211.879l9.15,1.329a1.609,1.609,0,0,1,.892,2.743l-6.621,6.454a1.608,1.608,0,0,0-.464,1.423l1.564,9.113a1.609,1.609,0,0,1-2.334,1.7l-8.184-4.3A1.607,1.607,0,0,0,136.35,323Z" transform="translate(-119.824 -294.475)" fill="#efc04d"/>
              <path id="Path_18704" data-name="Path 18704" d="M137.846,323l8.184,4.3a1.609,1.609,0,0,0,2.334-1.7l-.054-.317a25.751,25.751,0,0,1-6.736-3.577c-4.443-3.348-7.467-8.578-7.027-13.884a12.565,12.565,0,0,1,5.6-9.2l-1.6-3.253a1.608,1.608,0,0,0-2.885,0l-4.093,8.292a1.606,1.606,0,0,1-1.211.879l-9.15,1.329a1.608,1.608,0,0,0-.891,2.743l6.621,6.454a1.6,1.6,0,0,1,.463,1.423l-1.563,9.113a1.608,1.608,0,0,0,2.333,1.7l8.184-4.3A1.607,1.607,0,0,1,137.846,323Z" transform="translate(-119.824 -294.475)" fill="#e0a327"/>
            </g>
            <g id="Group_18831" data-name="Group 18831" transform="translate(204.05)">
              <path id="Path_18705" data-name="Path 18705" d="M349.838,244.182l-8.184,4.3a1.608,1.608,0,0,1-2.333-1.7l1.563-9.113a1.607,1.607,0,0,0-.463-1.424L333.8,229.8a1.608,1.608,0,0,1,.891-2.743l9.151-1.33a1.611,1.611,0,0,0,1.211-.88l4.092-8.291a1.608,1.608,0,0,1,2.885,0l4.092,8.291a1.609,1.609,0,0,0,1.211.88l9.15,1.33a1.609,1.609,0,0,1,.892,2.743l-6.622,6.453a1.61,1.61,0,0,0-.462,1.424l1.563,9.113a1.608,1.608,0,0,1-2.334,1.7l-8.184-4.3A1.607,1.607,0,0,0,349.838,244.182Z" transform="translate(-333.312 -215.658)" fill="#efc04d"/>
              <path id="Path_18706" data-name="Path 18706" d="M351.334,244.182l8.184,4.3a1.608,1.608,0,0,0,2.334-1.7l-.054-.317a25.72,25.72,0,0,1-6.736-3.576c-4.443-3.348-7.467-8.578-7.026-13.884a12.562,12.562,0,0,1,5.6-9.2l-1.6-3.253a1.608,1.608,0,0,0-2.885,0l-4.092,8.291a1.611,1.611,0,0,1-1.211.88l-9.151,1.33a1.608,1.608,0,0,0-.891,2.743l6.621,6.453a1.607,1.607,0,0,1,.463,1.424l-1.563,9.113a1.608,1.608,0,0,0,2.333,1.7l8.184-4.3A1.607,1.607,0,0,1,351.334,244.182Z" transform="translate(-333.312 -215.658)" fill="#e0a327"/>
            </g>
          </g>
          <g id="Group_18857" data-name="Group 18857">
            <g id="Group_18851" data-name="Group 18851">
              <g id="Group_18840" data-name="Group 18840" transform="translate(212.592 97.089)">
                <g id="Group_18834" data-name="Group 18834" transform="translate(0)">
                  <g id="Group_18833" data-name="Group 18833">
                    <circle id="Ellipse_2518" data-name="Ellipse 2518" cx="34.763" cy="34.763" r="34.763" fill="#efc04d"/>
                  </g>
                </g>
                <path id="Path_18707" data-name="Path 18707" d="M349.777,345.523a34.588,34.588,0,0,0,18.758-5.5,47.734,47.734,0,0,1-16.405-6.389c-8.1-5.246-14.2-14.362-13.713-24,.484-9.561,7.3-17.91,15.58-22.712a55.957,55.957,0,0,1,14.285-5.583,34.761,34.761,0,1,0-18.506,64.185Z" transform="translate(-315.014 -275.998)" fill="#efc04d"/>
                <g id="Group_18836" data-name="Group 18836" transform="translate(6.981 6.981)">
                  <g id="Group_18835" data-name="Group 18835">
                    <circle id="Ellipse_2519" data-name="Ellipse 2519" cx="27.782" cy="27.782" r="27.782" fill="#f4f7fb"/>
                  </g>
                </g>
                <path id="Path_18708" data-name="Path 18708" d="M354.321,287.244a46.145,46.145,0,0,1,4.835-2.425,27.783,27.783,0,1,0-.116,52.568,40.8,40.8,0,0,1-6.587-3.431c-8.1-5.246-14.2-14.362-13.713-24C339.224,300.394,346.039,292.046,354.321,287.244Z" transform="translate(-315.337 -276.32)" fill="rgba(199,199,199,0.11)"/>
                <g id="Group_18838" data-name="Group 18838" transform="translate(22.786 23.305)">
                  <path id="Path_18709" data-name="Path 18709" d="M361.077,307.115c1.435,0,2.6-1.508,2.6-3.368s-1.163-3.367-2.6-3.367-2.6,1.507-2.6,3.367S359.642,307.115,361.077,307.115Z" transform="translate(-339.722 -300.38)" fill="#efc04d"/>
                  <g id="Group_18837" data-name="Group 18837">
                    <path id="Path_18710" data-name="Path 18710" d="M339.128,302.248c-.01.024-.018.049-.027.074-.023.063-.045.126-.065.191-.011.038-.022.077-.033.117-.015.055-.031.112-.043.169s-.022.1-.032.156-.019.1-.027.147c-.01.066-.016.133-.023.2,0,.039-.01.078-.012.118-.009.109-.013.218-.013.329a4.46,4.46,0,0,0,.027.456c0,.037.009.074.013.111.019.146.043.291.076.43h0a3.745,3.745,0,0,0,.124.412c.011.03.022.059.033.089a3.56,3.56,0,0,0,.378.727c.014.02.028.04.043.06a2.875,2.875,0,0,0,.527.567l.048.036a2.155,2.155,0,0,0,1.329.479c1.435,0,2.6-1.508,2.6-3.368s-1.163-3.367-2.6-3.367a2.548,2.548,0,0,0-2.22,1.627l-.011.024C339.188,302.1,339.157,302.173,339.128,302.248Z" transform="translate(-338.854 -300.38)" fill="#efc04d"/>
                    <path id="Path_18711" data-name="Path 18711" d="M338.894,304.314c.019.146.043.291.076.43h0a3.745,3.745,0,0,0,.124.412c.011.03.022.059.033.089a3.56,3.56,0,0,0,.378.727c.014.02.028.04.043.06a2.875,2.875,0,0,0,.527.567l0,0a24.75,24.75,0,0,1,2.335-5.981,2.081,2.081,0,0,0-.962-.241,2.548,2.548,0,0,0-2.22,1.627l-.011.024c-.033.071-.063.142-.092.217-.01.024-.018.049-.027.074-.023.063-.045.126-.065.191-.011.038-.022.077-.033.117-.015.055-.031.112-.043.169s-.022.1-.032.156-.019.1-.027.147c-.01.066-.016.133-.023.2,0,.039-.01.078-.012.118-.009.109-.013.218-.013.329a4.46,4.46,0,0,0,.027.456C338.885,304.24,338.889,304.277,338.894,304.314Z" transform="translate(-338.854 -300.38)" fill="#efc04d"/>
                  </g>
                </g>
                <g id="Group_18839" data-name="Group 18839" transform="translate(22.239 40.464)">
                  <path id="Path_18712" data-name="Path 18712" d="M339.144,318.333a.856.856,0,0,0-.834,1.063,12.912,12.912,0,0,0,24.991,0,.855.855,0,0,0-.834-1.063Z" transform="translate(-338.282 -318.333)" fill="#efc04d"/>
                  <path id="Path_18713" data-name="Path 18713" d="M344.629,327.477a27.342,27.342,0,0,1-4.449-9.144h-1.036a.856.856,0,0,0-.834,1.063A13.023,13.023,0,0,0,344.629,327.477Z" transform="translate(-338.282 -318.333)" fill="#efc04d"/>
                </g>
              </g>
              <g id="Group_18850" data-name="Group 18850">
                <g id="Group_18843" data-name="Group 18843">
                  <g id="Group_18842" data-name="Group 18842">
                    <g id="Group_18841" data-name="Group 18841">
                      <circle id="Ellipse_2520" data-name="Ellipse 2520" cx="34.763" cy="34.763" r="34.763" transform="translate(0 67.666) rotate(-76.717)" fill="#efc04d"/>
                    </g>
                  </g>
                  <path id="Path_18714" data-name="Path 18714" d="M134.735,251.327a34.586,34.586,0,0,0,18.759-5.5,47.68,47.68,0,0,1-16.405-6.389c-8.1-5.245-14.2-14.362-13.714-24,.485-9.561,7.3-17.91,15.58-22.712a55.933,55.933,0,0,1,14.285-5.583,34.761,34.761,0,1,0-18.506,64.185Z" transform="translate(-92.915 -174.744)" fill="#efc04d"/>
                </g>
                <g id="Group_18846" data-name="Group 18846" transform="translate(8.398 8.398)">
                  <g id="Group_18845" data-name="Group 18845" transform="translate(0)">
                    <g id="Group_18844" data-name="Group 18844">
                      <circle id="Ellipse_2521" data-name="Ellipse 2521" cx="27.782" cy="27.782" r="27.782" transform="translate(0 54.078) rotate(-76.717)" fill="#f4f7fb"/>
                    </g>
                  </g>
                  <path id="Path_18715" data-name="Path 18715" d="M139.279,193.048a45.965,45.965,0,0,1,4.835-2.425A27.782,27.782,0,1,0,144,243.19a40.8,40.8,0,0,1-6.586-3.432c-8.1-5.245-14.2-14.362-13.714-24C124.183,206.2,131,197.85,139.279,193.048Z" transform="translate(-101.636 -183.465)" fill="#c6c6c6" opacity="0.185"/>
                </g>
                <g id="Group_18849" data-name="Group 18849" transform="translate(24.287 29.006)">
                  <g id="Group_18848" data-name="Group 18848">
                    <g id="Group_18847" data-name="Group 18847">
                      <path id="Path_18716" data-name="Path 18716" d="M127.43,230.393h-.072a2.522,2.522,0,0,1-1.811-.842l-6.908-7.745a2.524,2.524,0,0,1,3.767-3.36l5.129,5.751L146.226,205.5a2.523,2.523,0,1,1,3.568,3.569l-20.58,20.58A2.523,2.523,0,0,1,127.43,230.393Z" transform="translate(-117.999 -204.766)" fill="#efc04d"/>
                    </g>
                  </g>
                  <path id="Path_18717" data-name="Path 18717" d="M125.547,230.143a2.521,2.521,0,0,0,1.811.842h.072a2.546,2.546,0,0,0,.527-.056,25.6,25.6,0,0,1-3.583-9.685l-1.967-2.206a2.524,2.524,0,0,0-3.767,3.36Z" transform="translate(-117.999 -205.359)" fill="#efc04d"/>
                </g>
              </g>
            </g>
          </g>
        </g>
      </g>
      <g id="Group_18863" data-name="Group 18863">
        <g id="Group_18861" data-name="Group 18861" transform="translate(29.754 20.353)">
          <g id="Group_18860" data-name="Group 18860">
            <path id="Path_18724" data-name="Path 18724" d="M318.762,194.895h-2.548v-2.548h-1.553v2.548h-2.548v1.553h2.548V199h1.553v-2.548h2.548Z" transform="translate(-131.426 -192.347)" fill="#7858c4"/>
            <path id="Path_18725" data-name="Path 18725" d="M129.718,265.468H127.17V262.92h-1.553v2.548h-2.548v1.553h2.548v2.548h1.553v-2.548h2.548Z" transform="translate(-123.068 -195.467)" fill="#7858c4"/>
            <path id="Path_18726" data-name="Path 18726" d="M206.859,358.742h-2.548v-2.548h-1.553v2.548H200.21V360.3h2.548v2.548h1.553V360.3h2.548Z" transform="translate(-126.479 -199.59)" fill="#7858c4"/>
            <path id="Path_18727" data-name="Path 18727" d="M401.973,273.19h-2.548v-2.548h-1.553v2.548h-2.548v1.553h2.548v2.548h1.553v-2.548h2.548Z" transform="translate(-135.104 -195.808)" fill="#7858c4"/>
          </g>
        </g>
        <g id="Group_18862" data-name="Group 18862">
          <path id="Path_18728" data-name="Path 18728" d="M191.445,178.393a1.175,1.175,0,0,0,0,2.349A1.175,1.175,0,0,0,191.445,178.393Z" transform="translate(-96.287 -171.377)" fill="none" stroke="#efc04d" stroke-miterlimit="10" stroke-width="0.738"/>
          <path id="Path_18729" data-name="Path 18729" d="M93.073,298.3a1.175,1.175,0,0,0,0,2.349A1.175,1.175,0,0,0,93.073,298.3Z" transform="translate(-91.938 -176.677)" fill="none" stroke="#efc04d" stroke-miterlimit="10" stroke-width="0.738"/>
          <path id="Path_18730" data-name="Path 18730" d="M272.2,363.88a1.175,1.175,0,0,0,0,2.349A1.175,1.175,0,0,0,272.2,363.88Z" transform="translate(-99.856 -179.577)" fill="none" stroke="#efc04d" stroke-miterlimit="10" stroke-width="0.738"/>
          <path id="Path_18731" data-name="Path 18731" d="M398.954,330.11a1.176,1.176,0,0,0,0,2.35A1.176,1.176,0,0,0,398.954,330.11Z" transform="translate(-105.46 -178.084)" fill="none" stroke="#efc04d" stroke-miterlimit="10" stroke-width="0.738"/>
          <path id="Path_18732" data-name="Path 18732" d="M365.674,171.052a1.175,1.175,0,0,0,0,2.349A1.175,1.175,0,0,0,365.674,171.052Z" transform="translate(-103.989 -171.052)" fill="none" stroke="#efc04d" stroke-miterlimit="10" stroke-width="0.738"/>
        </g>
      </g>
    </g>
  </g>
</svg>
