<svg xmlns="http://www.w3.org/2000/svg" xmlns:xlink="http://www.w3.org/1999/xlink" width="400.244" height="307.836" viewBox="0 0 400.244 307.836">
  <defs>
    <clipPath id="clip-path">
      <rect x="116" y="17" width="400.244" height="307.836" fill="none"/>
    </clipPath>
    <linearGradient id="linear-gradient" y1="0.5" x2="1" y2="0.5" gradientUnits="objectBoundingBox">
      <stop offset="0" stop-color="#334596"/>
      <stop offset="1" stop-color="#86d1de"/>
    </linearGradient>
    <linearGradient id="linear-gradient-2" y1="0.5" x2="1" y2="0.5" gradientUnits="objectBoundingBox">
      <stop offset="0" stop-color="#334596"/>
      <stop offset="1" stop-color="#56c2db"/>
    </linearGradient>
  </defs>
  <g id="Group_49407" data-name="Group 49407" transform="translate(16183.054 -2713.214)">
    <g id="Scroll_Group_32" data-name="Scroll Group 32" transform="translate(-16299.054 2696.214)" clip-path="url(#clip-path)" style="isolation: isolate">
      <g id="Group_49406" data-name="Group 49406" transform="translate(16180.585 -2713.214)">
        <path id="Path_27623" data-name="Path 27623" d="M27.063.222,411.291,0c23.951,0,20.364-2.446,20.364,16.867v310.87H5.043C2.258,327.737,0,325.916,0,323.67L5.043.222C3.075.4,3.111.222,27.063.222Z" transform="translate(-16069.187 2713.314)" fill="#080c2f"/>
        <g id="Group_49405" data-name="Group 49405" transform="translate(-16180.585 2770.879)">
          <g id="Group_47245" data-name="Group 47245" transform="matrix(-0.719, -0.695, 0.695, -0.719, 150.701, 284.171)" opacity="0.056">
            <ellipse id="Ellipse_4149" data-name="Ellipse 4149" cx="68.142" cy="68.142" rx="68.142" ry="68.142" transform="translate(209.499 96.367) rotate(135)" fill="#8b8b8b"/>
            <ellipse id="Ellipse_4150" data-name="Ellipse 4150" cx="39.706" cy="39.706" rx="39.706" ry="39.706" transform="translate(0 53.127)" fill="#e3e3e3"/>
          </g>
          <path id="Path_40205" data-name="Path 40205" d="M467.263,376.671H415.074a27.358,27.358,0,0,0-27.362,27.362v52.189a27.362,27.362,0,0,0,27.362,27.362h52.189a27.342,27.342,0,0,0,11-2.3l-10.419-10.419c-.194.005-.387.011-.58.011H415.074a14.672,14.672,0,0,1-14.656-14.656V404.033a14.672,14.672,0,0,1,14.656-14.656h52.189a14.672,14.672,0,0,1,14.657,14.656v52.189c0,.072,0,.143-.006.21l10.524,10.524a27.271,27.271,0,0,0,2.188-10.734V404.033A27.362,27.362,0,0,0,467.263,376.671Z" transform="translate(-117.919 -350.5)" fill="url(#linear-gradient)"/>
          <path id="Path_40206" data-name="Path 40206" d="M494.4,442.576H468.058a14.438,14.438,0,0,0-14.441,14.44v26.346a14.438,14.438,0,0,0,14.441,14.44H494.4c.122,0,.249,0,.37-.005l-10.485-10.491h-16.23a3.947,3.947,0,0,1-3.944-3.944V457.016a3.947,3.947,0,0,1,3.944-3.944H494.4a3.947,3.947,0,0,1,3.944,3.944v15.85l10.5,10.5V457.016A14.438,14.438,0,0,0,494.4,442.576Z" transform="translate(-157.981 -390.562)" fill="url(#linear-gradient-2)"/>
          <path id="Path_40207" data-name="Path 40207" d="M661.325,633.291l-9.69-9.69a6.525,6.525,0,0,0-9.231,0l-5.022,5.016a6.532,6.532,0,0,0,0,9.231l9.7,9.689.105.105a6.522,6.522,0,0,0,9.126-.105l5.016-5.016A6.521,6.521,0,0,0,661.325,633.291Z" transform="translate(-268.526 -499.439)" fill="url(#linear-gradient-2)"/>
          <path id="Path_40208" data-name="Path 40208" d="M483.606,681.011h9.549q10.612,0,10.611,7.784,0,5.881-6.155,7.438l6.155,8.994h-4.882l-5.73-8.649H487.85v8.649h-4.244Zm4.244,3.459v8.649h5.305q6.367,0,6.367-4.324t-6.367-4.325Z" transform="translate(-176.212 -535.5)" fill="#fff"/>
          <rect id="Rectangle_16674" data-name="Rectangle 16674" width="3.162" height="3.162" transform="translate(330.4 166.499)" fill="#fff"/>
          <text id="CITY" transform="translate(334.715 168.98)" fill="#fff" font-size="17" font-family="Raleway-Regular, Raleway" letter-spacing="-0.001em"><tspan x="0" y="0">CITY</tspan></text>
          <ellipse id="Ellipse_4226" data-name="Ellipse 4226" cx="10.404" cy="11.279" rx="10.404" ry="11.279" transform="translate(281.417 145.624)" fill="none" stroke="#f3f2f9" stroke-miterlimit="10" stroke-width="10"/>
          <rect id="Rectangle_16675" data-name="Rectangle 16675" width="4.228" height="10.445" transform="matrix(0.807, -0.591, 0.591, 0.807, 293.088, 162.691)" fill="#f3f2f9"/>
        </g>
      </g>
    </g>
  </g>
</svg>
