<svg xmlns="http://www.w3.org/2000/svg" width="295.573" height="215.784" viewBox="0 0 295.573 215.784">
  <g id="Group_49414" data-name="Group 49414" transform="translate(-82.925 -138.508)">
    <g id="Group_49413" data-name="Group 49413" transform="translate(83.566 139)">
      <g id="Group_49412" data-name="Group 49412">
        <g id="Group_49411" data-name="Group 49411">
          <g id="Group_49410" data-name="Group 49410">
            <g id="Group_49409" data-name="Group 49409">
              <g id="Group_49408" data-name="Group 49408">
                <g id="Group_48269" data-name="Group 48269">
                  <g id="Group_48151" data-name="Group 48151">
                    <g id="Group_47614" data-name="Group 47614" transform="translate(3.173 10.774)">
                      <g id="Group_47613" data-name="Group 47613">
                        <path id="Path_40213" data-name="Path 40213" d="M653.805,262.19c-22.686-8.364-53.4-50.2-40.916-90.992,7.1-23.206,29.392-24.935,46.915-28.79,24.35-5.357,35.311-22.394,51.438-43.364,18.021-23.43,58.95-50.8,95.152-14.332,9.748,9.822,11.3,28.813,23.881,42.146,12.651,13.408,29.148,13.469,36.572,40.014,5.785,20.683-19.12,63.715-35.994,76.539C799.642,267.13,704.964,281.05,653.805,262.19Z" transform="translate(-610.006 -66.973)" fill="rgba(57,79,155,0.06)" stroke="rgba(0,0,0,0)" stroke-width="1"/>
                      </g>
                    </g>
                    <g id="Group_47856" data-name="Group 47856">
                      <g id="Group_47846" data-name="Group 47846" transform="translate(5.728 79.428)">
                        <g id="Group_47845" data-name="Group 47845">
                          <g id="Group_47844" data-name="Group 47844">
                            <path id="Path_40249" data-name="Path 40249" d="M612.476,139.3l-.376-.226c4.443-7.413,11.6-12.441,22.526-15.826l.13.42C623.941,127.018,616.862,131.986,612.476,139.3Z" transform="translate(-612.1 -123.248)" fill="#2e4882" stroke="rgba(0,0,0,0)" stroke-width="1"/>
                          </g>
                        </g>
                      </g>
                      <g id="Group_47849" data-name="Group 47849" transform="translate(0 74.523)">
                        <g id="Group_47848" data-name="Group 47848">
                          <g id="Group_47847" data-name="Group 47847">
                            <path id="Path_40250" data-name="Path 40250" d="M607.819,143.069l-.414-.15c5.736-15.766,20.459-20.824,34.1-23.692l.09.431C628.073,122.5,613.481,127.506,607.819,143.069Z" transform="translate(-607.405 -119.227)" fill="#2e4882" stroke="rgba(0,0,0,0)" stroke-width="1"/>
                          </g>
                        </g>
                      </g>
                      <g id="Group_47852" data-name="Group 47852" transform="translate(171.253 4.018)">
                        <g id="Group_47851" data-name="Group 47851">
                          <g id="Group_47850" data-name="Group 47850">
                            <path id="Path_40251" data-name="Path 40251" d="M774.753,67.235c-10.081-5.154-18.617-6.542-26.863-4.37l-.112-.425c8.356-2.2,16.992-.8,27.175,4.4Z" transform="translate(-747.778 -61.436)" fill="#2e4882" stroke="rgba(0,0,0,0)" stroke-width="1"/>
                          </g>
                        </g>
                      </g>
                      <g id="Group_47855" data-name="Group 47855" transform="translate(165.086)">
                        <g id="Group_47854" data-name="Group 47854">
                          <g id="Group_47853" data-name="Group 47853">
                            <path id="Path_40252" data-name="Path 40252" d="M783.443,68.513c-11.668-7.41-25.608-14.019-40.529-6.832l-.19-.4c15.114-7.278,29.185-.619,40.955,6.858Z" transform="translate(-742.723 -58.142)" fill="#2e4882" stroke="rgba(0,0,0,0)" stroke-width="1"/>
                          </g>
                        </g>
                      </g>
                    </g>
                    <g id="Group_48147" data-name="Group 48147" transform="translate(68.366 52.083)">
                      <g id="Group_48145" data-name="Group 48145" transform="translate(8.835)">
                        <path id="Path_40325" data-name="Path 40325" d="M670.9,104.344l-.211-.351c1.139-.688,2.325-1.331,3.521-1.912a43.9,43.9,0,0,1,9.646-3.307,43.2,43.2,0,0,1,10.154-.978,42.657,42.657,0,0,1,10.1,1.405l-.1.4A42.22,42.22,0,0,0,694,98.206a42.841,42.841,0,0,0-10.058.966,43.586,43.586,0,0,0-9.557,3.277C673.2,103.025,672.026,103.662,670.9,104.344Z" transform="translate(-670.685 -97.788)" fill="#2e4882" stroke="rgba(0,0,0,0)" stroke-width="1"/>
                      </g>
                      <g id="Group_48146" data-name="Group 48146" transform="translate(0 9.772)">
                        <path id="Path_40326" data-name="Path 40326" d="M663.742,109.543l-.3-.281c.373-.4.772-.78,1.158-1.148.222-.212.444-.423.662-.64.194-.168.377-.331.56-.492.447-.394.909-.8,1.379-1.185l.259.317c-.464.379-.922.783-1.366,1.175q-.275.243-.551.486c-.211.209-.434.422-.659.636C664.5,108.776,664.108,109.153,663.742,109.543Z" transform="translate(-663.443 -105.798)" fill="#2e4882" stroke="rgba(0,0,0,0)" stroke-width="1"/>
                      </g>
                    </g>
                  </g>
                  <g id="Group_48187" data-name="Group 48187" transform="translate(80.435 99.05)">
                    <circle id="Ellipse_4181" data-name="Ellipse 4181" cx="28.135" cy="28.135" r="28.135" transform="translate(65.868)" fill="#455a64" stroke="rgba(0,0,0,0)" stroke-width="1"/>
                    <circle id="Ellipse_4182" data-name="Ellipse 4182" cx="19.22" cy="19.22" r="19.22" transform="translate(0 49.495)" fill="#ebebeb" stroke="rgba(0,0,0,0)" stroke-width="1"/>
                    <g id="Group_48186" data-name="Group 48186" transform="translate(32.137 2.962)">
                      <g id="Group_48185" data-name="Group 48185" transform="translate(7.309)">
                        <path id="Path_40416" data-name="Path 40416" d="M313.872,160.919V181.1h-5.7V160.919c0-7.673-5.829-13.914-13-13.914s-13,6.24-13,13.914V181.1h-5.7V160.919c0-10.991,8.388-19.927,18.7-19.927S313.872,149.928,313.872,160.919Z" transform="translate(-276.47 -140.992)" fill="#c7c7c7" stroke="rgba(0,0,0,0)" stroke-width="1"/>
                        <path id="Path_40417" data-name="Path 40417" d="M276.47,161.723l5.7.23v14.7h-5.7Z" transform="translate(-276.47 -136.549)" fill="#a6a6a6" stroke="rgba(0,0,0,0)" stroke-width="1"/>
                        <path id="Path_40418" data-name="Path 40418" d="M308.277,163.018v13.41h-5.7V162.785Z" transform="translate(-270.876 -136.322)" fill="#a6a6a6" stroke="rgba(0,0,0,0)" stroke-width="1"/>
                      </g>
                      <rect id="Rectangle_16715" data-name="Rectangle 16715" width="52.019" height="47.193" transform="translate(0 28.616)" fill="#394f9b" stroke="rgba(0,0,0,0)" stroke-width="1"/>
                      <rect id="Rectangle_16716" data-name="Rectangle 16716" width="26.009" height="47.193" transform="translate(26.009 28.616)" stroke="rgba(0,0,0,0)" stroke-width="1" opacity="0.1"/>
                      <path id="Path_40419" data-name="Path 40419" d="M294.929,186.917l2.177,10.329h-9.241l2.177-10.329a4.62,4.62,0,1,1,4.886,0Z" transform="translate(-266.719 -132.977)" fill="#fff" stroke="rgba(0,0,0,0)" stroke-width="1"/>
                    </g>
                  </g>
                  <g id="Speech_Bubble" data-name="Speech Bubble" transform="translate(227.315 59.187)">
                    <g id="Group_48267" data-name="Group 48267">
                      <path id="Path_40534" data-name="Path 40534" d="M176.3,165.447a6.169,6.169,0,1,1-6.678-5.614A6.17,6.17,0,0,1,176.3,165.447Z" transform="translate(-156.093 -104.968)" fill="#fff" stroke="#263238" stroke-miterlimit="10" stroke-width="1"/>
                      <path id="Path_40535" data-name="Path 40535" d="M162.947,176.815a3.433,3.433,0,1,1-3.717-3.124A3.434,3.434,0,0,1,162.947,176.815Z" transform="translate(-156.093 -104.968)" fill="#fff" stroke="#263238" stroke-miterlimit="10" stroke-width="1"/>
                      <g id="Group_48263" data-name="Group 48263" transform="translate(0.025)">
                        <path id="Path_40536" data-name="Path 40536" d="M222.439,136.76a18.017,18.017,0,0,1-24.883,18.774,15.111,15.111,0,0,1-24.039-.053,11.894,11.894,0,0,1-2.022.423,12.254,12.254,0,0,1-11.51-19.2,18.011,18.011,0,0,1,24.25-26.061,15.117,15.117,0,0,1,25.947,4.118,9.686,9.686,0,0,1,1.939-.437,9.889,9.889,0,0,1,8.5,16.474A17.556,17.556,0,0,1,222.439,136.76Z" transform="translate(-156.118 -104.968)" fill="#fff" stroke="#263238" stroke-miterlimit="10" stroke-width="1"/>
                      </g>
                      <g id="Group_48266" data-name="Group 48266" transform="translate(15.304 13.291)">
                        <g id="Group_48264" data-name="Group 48264" transform="translate(20.241)">
                          <path id="Path_40537" data-name="Path 40537" d="M199.142,136.269,198.573,139a2.053,2.053,0,0,1-2.487,1.629,2.105,2.105,0,0,1-1.63-2.487l.91-4.369c.008-.042.05-.033.059-.075-.033-.051-.033-.051-.024-.093a2.164,2.164,0,0,1,2.487-1.63,4.807,4.807,0,1,0,1.96-9.41,4.74,4.74,0,0,0-4.514,1.471,2.117,2.117,0,0,1-3.014.161,2.091,2.091,0,0,1-.128-2.963,9.019,9.019,0,1,1,6.95,15.035Zm-1.917,9.2-.157.756a2.053,2.053,0,0,1-2.487,1.629,2.106,2.106,0,0,1-1.63-2.487l.157-.756a2.135,2.135,0,0,1,2.488-1.63A2.079,2.079,0,0,1,197.225,145.47Z" transform="translate(-191.638 -118.259)" fill="#394f9b" stroke="rgba(0,0,0,0)" stroke-width="1"/>
                        </g>
                        <g id="Group_48265" data-name="Group 48265" transform="translate(0 0.012)">
                          <path id="Path_40538" data-name="Path 40538" d="M177.29,130.725l-.343-2.768a2.053,2.053,0,0,1,1.829-2.345,2.106,2.106,0,0,1,2.345,1.828l.548,4.429c0,.043-.037.048-.032.091.048.037.048.037.053.08a2.165,2.165,0,0,1-1.829,2.345,4.807,4.807,0,1,0,1.181,9.539,4.741,4.741,0,0,0,3.8-2.848,2.117,2.117,0,0,1,2.8-1.125,2.091,2.091,0,0,1,1.077,2.764,9.019,9.019,0,1,1-11.428-11.99Zm-1.154-9.327-.1-.766a2.053,2.053,0,0,1,1.829-2.345,2.106,2.106,0,0,1,2.345,1.828l.1.767a2.135,2.135,0,0,1-1.829,2.345A2.079,2.079,0,0,1,176.136,121.4Z" transform="translate(-171.397 -118.271)" fill="#394f9b" stroke="rgba(0,0,0,0)" stroke-width="1"/>
                        </g>
                      </g>
                    </g>
                  </g>
                </g>
              </g>
            </g>
          </g>
        </g>
      </g>
    </g>
  </g>
</svg>
