<svg xmlns="http://www.w3.org/2000/svg" width="26.5" height="26.751" viewBox="0 0 26.5 26.751">
  <g id="j7Ronj" transform="translate(-2015.824 -771.486)">
    <g id="Group_41614" data-name="Group 41614" transform="translate(2015.824 771.486)">
      <path id="Path_24724" data-name="Path 24724" d="M2027.164,888.658a3.605,3.605,0,0,1-.44-.8,2.458,2.458,0,0,1,.571-2.617,2.4,2.4,0,0,1,2.592-.66,2.446,2.446,0,0,1,1.749,2.028,2.4,2.4,0,0,1-.456,1.885c-.129.179-.1.206.107.259a11,11,0,0,1,8.63,8.74,8.419,8.419,0,0,1,.2,1.842c0,.112-.01.2.155.23a2.359,2.359,0,0,1,1.966,2,2.772,2.772,0,0,1-1,2.948,2.022,2.022,0,0,1-1.318.423c-7.188-.036-14.376-.082-21.564-.09a2.48,2.48,0,0,1-2.47-2.1,2.93,2.93,0,0,1,.557-2.434,2.114,2.114,0,0,1,1.257-.805c.167-.036.224-.089.231-.265a11.087,11.087,0,0,1,9-10.521C2027,888.7,2027.075,888.68,2027.164,888.658Zm1.922,14.869v.089q5.406,0,10.812,0a.966.966,0,0,0,.922-.589,1.722,1.722,0,0,0,.088-1.4,1.025,1.025,0,0,0-1.1-.783c-.989-.007-1.978-.01-2.966-.018a.658.658,0,0,1-.743-.643c-.005-.4.285-.66.753-.66.582,0,1.164,0,1.746.014.174,0,.224-.054.214-.223a12.375,12.375,0,0,0-.136-1.322,9.795,9.795,0,0,0-19.442,1.153c-.013.232.041.295.276.3,3.022.008,6.043.027,9.065.042,1.257.006,2.514.007,3.77.012a.661.661,0,0,1,.739.705c-.021.4-.3.616-.793.614q-7-.033-14-.069a1,1,0,0,0-.956.579,1.7,1.7,0,0,0-.145,1.238,1.1,1.1,0,0,0,1.22.96Zm.041-15.289a1.239,1.239,0,0,0,.005-2.478,1.239,1.239,0,1,0-.005,2.478Z" transform="translate(-2015.824 -878.178)" fill="#394f9b"/>
      <path id="Path_24725" data-name="Path 24725" d="M2027.833,781.951a3.71,3.71,0,0,1,.707-2.451,2.627,2.627,0,0,0,.366-2.711,5.384,5.384,0,0,0-.753-1.38.563.563,0,0,1,.054-.852.556.556,0,0,1,.813.2,5.5,5.5,0,0,1,1.2,3.185,2.89,2.89,0,0,1-.6,1.892,3.355,3.355,0,0,0-.487,3.248,6.286,6.286,0,0,0,.59,1.369.543.543,0,1,1-.924.559A6.478,6.478,0,0,1,2027.833,781.951Z" transform="translate(-2027.167 -774.287)" fill="#394f9b"/>
      <path id="Path_24726" data-name="Path 24726" d="M2372.761,778.784a3.551,3.551,0,0,1,.729-2.278,2.59,2.59,0,0,0,.357-2.639,5.388,5.388,0,0,0-.772-1.433.558.558,0,0,1,.042-.833.551.551,0,0,1,.815.171,5.447,5.447,0,0,1,1.214,3.263,2.808,2.808,0,0,1-.581,1.814,3.367,3.367,0,0,0-.493,3.3,6.284,6.284,0,0,0,.572,1.317.549.549,0,1,1-.937.551A6.565,6.565,0,0,1,2372.761,778.784Z" transform="translate(-2352.967 -771.486)" fill="#394f9b"/>
      <path id="Path_24727" data-name="Path 24727" d="M2440.861,775.2a3.021,3.021,0,0,1-.574,1.884,3.369,3.369,0,0,0-.5,3.348,6.153,6.153,0,0,0,.563,1.291.565.565,0,0,1-.145.822.549.549,0,0,1-.79-.268,5.966,5.966,0,0,1-.869-4.029,3.3,3.3,0,0,1,.66-1.507,2.475,2.475,0,0,0,.406-2.428,5.462,5.462,0,0,0-.833-1.617c-.239-.325-.222-.625.042-.831a.551.551,0,0,1,.833.184A5.644,5.644,0,0,1,2440.861,775.2Z" transform="translate(-2415.033 -771.729)" fill="#394f9b"/>
      <path id="Path_24728" data-name="Path 24728" d="M2093.452,781.707a3.249,3.249,0,0,1,.709-1.975,2.646,2.646,0,0,0,.323-2.815,5.748,5.748,0,0,0-.726-1.3.546.546,0,1,1,.859-.658,5.723,5.723,0,0,1,1.205,2.9,2.908,2.908,0,0,1-.547,2.151,3.54,3.54,0,0,0-.392,3.688,6.593,6.593,0,0,0,.473,1,.547.547,0,0,1-.183.789.539.539,0,0,1-.755-.244A6.826,6.826,0,0,1,2093.452,781.707Z" transform="translate(-2089.147 -774.502)" fill="#394f9b"/>
    </g>
  </g>
</svg>
