<svg xmlns="http://www.w3.org/2000/svg" width="30.356" height="21.86" viewBox="0 0 30.356 21.86">
  <g id="Group_46980" data-name="Group 46980" transform="translate(5790.342 1782.158)">
    <path id="Path_39525" data-name="Path 39525" d="M-5744.811-1760.325c-3.229,0-6.458.01-9.687-.008a2.543,2.543,0,0,1-1.973-.589,3.277,3.277,0,0,1-.987-2.214c-.074-1.234-.021-2.475-.017-3.713a.712.712,0,0,1,.144-.573.717.717,0,0,1,.675-.193c.3.077.3.347.3.594,0,1.3-.018,2.6.008,3.9.026,1.37.621,1.946,1.99,1.947q9.505.008,19.009,0a2.044,2.044,0,0,0,2.218-2.126c.043-1.257.02-2.517.038-3.775a.634.634,0,0,0-.492-.673,2.362,2.362,0,0,0-.78-.11c-.874,0-1.753-.063-2.619.02a3.83,3.83,0,0,1-2.73-.81,3.148,3.148,0,0,1-.694-4.183,3.3,3.3,0,0,1,3.2-1.531c.971.066,1.949.024,2.924.02.942,0,1.162-.217,1.167-1.135.005-1.035,0-2.07,0-3.1a2.658,2.658,0,0,0-.042-.606c-.419-1.731-.609-1.826-2.114-1.83q-9.475-.024-18.948-.007c-.223,0-.447,0-.669.025a1.381,1.381,0,0,0-1.417,1.445c-.044,1.744-.029,3.49-.04,5.235,0,.246.011.511-.254.637a.742.742,0,0,1-.641-.1c-.221-.1-.243-.305-.242-.515.007-1.685-.029-3.371.035-5.053a2.915,2.915,0,0,1,2.942-2.8q9.718-.019,19.435,0a2.908,2.908,0,0,1,2.92,2.925c-.06,1.357-.01,2.719-.025,4.079a1.154,1.154,0,0,0,.389.973,1.589,1.589,0,0,1,.568,1.115,20.393,20.393,0,0,1-.049,3.887,1.06,1.06,0,0,1-.333.7,1.76,1.76,0,0,0-.569,1.532c.017,1.2-.035,2.4.016,3.592a2.771,2.771,0,0,1-3.025,3.043c-3.207-.087-6.417-.024-9.626-.024Zm9.522-13.17c-.609,0-1.218,0-1.827,0a2.546,2.546,0,0,0-2.66,1.678,2.211,2.211,0,0,0,1.089,2.581,3.792,3.792,0,0,0,1.125.241c1.48.026,2.962.017,4.443,0,.436,0,.937-.065.972-.615a19.1,19.1,0,0,0-.022-3.158.754.754,0,0,0-.868-.733C-5733.787-1773.487-5734.538-1773.5-5735.289-1773.5Z" transform="translate(-28.83 0)" fill="#394f9b"/>
    <path id="Path_39526" data-name="Path 39526" d="M-5784.514-1721c-1.645,0-3.289.007-4.934-.006-.354,0-.894.128-.895-.428,0-.537.447-.686.961-.683,3.187.015,6.374.014,9.561.018.183,0,.366,0,.548-.007.212-.008.407-.052.483-.289a.519.519,0,0,0-.211-.58c-.795-.754-1.574-1.524-2.358-2.289-.179-.174-.339-.346-.2-.635.2-.426.485-.5.835-.153,1.139,1.127,2.266,2.267,3.4,3.4.186.186.384.359.567.547a.741.741,0,0,1-.021,1.11q-2.03,2.038-4.045,4.09c-.14.143-.259.252-.468.167a.418.418,0,0,1-.269-.431.906.906,0,0,1,.29-.767c.873-.748,1.586-1.665,2.509-2.364.367-.278.125-.517-.157-.632a1.991,1.991,0,0,0-.719-.077c-1.624-.006-3.248,0-4.872,0Z" transform="translate(0 -49.057)" fill="#394f9b"/>
  </g>
</svg>
